<?xml version="1.0" encoding="UTF-8" standalone="no"?>
<!-- Created with Inkscape (http://www.inkscape.org/) -->

<svg
   xmlns:dc="http://purl.org/dc/elements/1.1/"
   xmlns:cc="http://creativecommons.org/ns#"
   xmlns:rdf="http://www.w3.org/1999/02/22-rdf-syntax-ns#"
   xmlns:svg="http://www.w3.org/2000/svg"
   xmlns="http://www.w3.org/2000/svg"
   version="1.1"
   width="301.18109"
   height="77.952751"
   id="svg3078">
  <defs
     id="defs3" />
  <metadata
     id="metadata3082">
    <rdf:RDF>
      <cc:Work
         rdf:about="">
        <dc:format>image/svg+xml</dc:format>
        <dc:type
           rdf:resource="http://purl.org/dc/dcmitype/StillImage" />
        <dc:title></dc:title>
      </cc:Work>
    </rdf:RDF>
  </metadata>
  <g
     transform="translate(0,-113.38583)"
     id="layer1">
    <path
       d="m 168.5775,189.2578 c -1.02254,-0.8604 -0.98786,-2.35048 0.0512,-2.20202 0.27035,0.0386 0.48188,0.28877 0.62751,0.74205 0.2862,0.89087 1.00019,1.18255 1.72774,0.70584 0.80916,-0.53018 1.0146,-1.17276 0.63167,-1.97577 -0.43816,-0.91882 -1.12514,-1.07376 -2.20973,-0.49839 -0.45682,0.24234 -0.92461,0.38251 -1.03954,0.31148 -0.30021,-0.18554 -0.27747,-4.25752 0.0255,-4.56045 0.29229,-0.29231 3.34772,-0.31766 3.8811,-0.0322 0.20784,0.11123 0.37789,0.37142 0.37789,0.57819 0,0.33608 -0.17102,0.38199 -1.61178,0.43271 l -1.61177,0.0567 -0.0603,0.9471 -0.0603,0.9471 0.76816,-0.12977 c 1.5509,-0.26203 2.73073,0.67235 2.91518,2.30871 0.19046,1.68984 -0.93503,2.86237 -2.74754,2.86237 -0.86814,0 -1.19253,-0.0962 -1.66494,-0.49369 z m -80.227378,-0.13048 c -0.545609,-0.3094 -0.67735,-0.55317 -0.680791,-1.25974 -0.0015,-0.39104 0.113433,-0.65872 0.317579,-0.73706 0.497514,-0.19091 1.046995,0.0669 1.046995,0.49125 0,0.93392 1.280736,0.57062 2.066897,-0.58632 0.516702,-0.76039 0.449365,-1.10165 -0.153689,-0.7789 -0.224119,0.11995 -0.808936,0.17283 -1.299591,0.11753 -0.73147,-0.0824 -1.029452,-0.24779 -1.654811,-0.91821 -0.733668,-0.78653 -0.759251,-0.85909 -0.672381,-1.90674 0.08115,-0.97843 0.174551,-1.16765 0.919244,-1.8623 0.782605,-0.73001 0.88337,-0.76799 1.803023,-0.67962 1.777231,0.17077 2.691723,1.34077 2.845497,3.64052 0.07838,1.17216 0.02515,1.41379 -0.565105,2.564 -0.534453,1.04154 -0.808387,1.34893 -1.52334,1.70946 -0.948977,0.47855 -1.8373,0.55329 -2.449527,0.20613 z m 2.721178,-4.17626 c 0.456455,-0.45646 0.405336,-1.93907 -0.08373,-2.42813 -0.502953,-0.50296 -1.372505,-0.4995 -1.916826,0.008 -0.530264,0.49402 -0.589206,1.83437 -0.104244,2.37025 0.405174,0.4477 1.676983,0.47808 2.1048,0.0503 z m 59.86637,-15.73534 c -5.94846,-5.06928 -10.87997,-9.31396 -10.95892,-9.43263 -0.27322,-0.41069 -0.14758,-0.70416 0.30148,-0.70416 0.31337,0 3.70458,2.80087 11.1138,9.1791 5.86454,5.04851 10.71148,9.30596 10.77098,9.461 0.0595,0.15504 -0.009,0.37902 -0.1519,0.49774 -0.20302,0.1685 -2.6322,-1.8057 -11.07544,-9.00105 z m -51.373413,8.60639 c -0.20445,-0.12635 -0.17851,-0.24776 0.1249,-0.58437 0.628503,-0.69728 21.560363,-18.04515 21.944783,-18.18735 0.40552,-0.15002 0.89062,0.0829 0.78264,0.37575 -0.11692,0.31705 -21.85575,18.36234 -22.24268,18.46353 -0.193373,0.0505 -0.467703,0.0201 -0.609643,-0.0676 z M 208.83357,155.70809 c -0.36583,-0.44081 -0.17881,-0.70831 1.71843,-2.45799 2.02373,-1.86634 2.42066,-2.65213 1.87383,-3.70958 -0.60837,-1.17646 -2.13528,-1.02015 -2.37222,0.24284 -0.1516,0.80806 -0.74114,1.10659 -1.22661,0.62112 -0.28179,-0.28179 -0.28456,-0.39674 -0.0271,-1.12574 0.39902,-1.12965 1.08249,-1.58841 2.32475,-1.56042 1.82738,0.0412 2.74851,0.91885 2.74851,2.61884 0,1.04628 -0.7149,2.24967 -2.01777,3.3965 -0.50199,0.44188 -0.91273,0.85827 -0.91273,0.92531 0,0.31323 1.398,0.0914 1.77031,-0.28086 0.62825,-0.62823 1.05217,-0.42017 1.12258,0.55096 l 0.0601,0.82862 -1.25246,0 c -0.68884,0 -1.77337,0.0545 -2.41004,0.121 -0.89809,0.0939 -1.21184,0.0556 -1.3996,-0.1706 z M 128.6445,151.8712 c -0.85889,-0.87089 -0.24968,-1.13254 2.5886,-1.11178 l 2.24673,0.0164 0.0618,0.53726 0.0618,0.53726 -1.755,0 c -1.2212,0 -1.78497,0.0743 -1.85354,0.2442 -0.0788,0.19537 -0.10162,0.19537 -0.11396,0 -0.0182,-0.28786 -0.60151,-0.33523 -0.60151,-0.0488 0,0.28692 -0.24676,0.2191 -0.63495,-0.17453 z m 63.12481,-16.25855 c -5.94846,-5.06928 -10.87997,-9.31396 -10.95892,-9.43262 -0.27322,-0.41069 -0.14758,-0.70417 0.30147,-0.70417 0.31338,0 3.70458,2.80087 11.1138,9.1791 5.86455,5.04851 10.71149,9.30596 10.77098,9.46101 0.0595,0.15503 -0.009,0.37902 -0.15189,0.49773 -0.20302,0.1685 -2.6322,-1.8057 -11.07544,-9.00105 z m -51.56878,8.60639 c -0.20446,-0.12635 -0.17851,-0.24776 0.12489,-0.58436 0.62851,-0.69729 21.56037,-18.04515 21.9448,-18.18736 0.40551,-0.15001 0.89061,0.0829 0.78262,0.37575 -0.11691,0.31706 -21.85575,18.36235 -22.24269,18.46353 -0.19336,0.0505 -0.46768,0.0201 -0.60962,-0.0676 z m 30.39453,-23.63451 c -0.0688,-0.1114 -0.0674,-0.54434 0.003,-0.96211 0.11005,-0.65139 0.068,-0.79185 -0.29529,-0.98627 -0.23298,-0.12469 -0.62099,-0.17717 -0.86224,-0.11662 -0.56424,0.14161 -1.15105,-0.28724 -1.05848,-0.77356 0.0583,-0.30663 0.26483,-0.38895 1.09575,-0.43688 l 1.02386,-0.059 0,-0.9427 c 0,-1.04894 0.33067,-1.48868 0.96746,-1.28657 0.33855,0.10745 0.40011,0.29028 0.40011,1.18834 l 0,1.06135 0.98921,0 0.98921,0 -0.0613,0.63494 c -0.0599,0.62073 -0.0846,0.63628 -1.10436,0.6946 l -1.04312,0.0597 0.0663,1.06397 c 0.0649,1.04127 0.0551,1.06396 -0.45944,1.0637 -0.28914,-1.4e-4 -0.58205,-0.0914 -0.6509,-0.2028 z"
       id="path3065"
       style="fill:#000000" />
  </g>
</svg>
