<?xml version="1.0" encoding="UTF-8" standalone="no"?>
<!-- Created with Inkscape (http://www.inkscape.org/) -->

<svg
   xmlns:dc="http://purl.org/dc/elements/1.1/"
   xmlns:cc="http://creativecommons.org/ns#"
   xmlns:rdf="http://www.w3.org/1999/02/22-rdf-syntax-ns#"
   xmlns:svg="http://www.w3.org/2000/svg"
   xmlns="http://www.w3.org/2000/svg"
   version="1.1"
   width="301.18109"
   height="148.81889"
   id="svg3064">
  <defs
     id="defs3" />
  <metadata
     id="metadata3068">
    <rdf:RDF>
      <cc:Work
         rdf:about="">
        <dc:format>image/svg+xml</dc:format>
        <dc:type
           rdf:resource="http://purl.org/dc/dcmitype/StillImage" />
        <dc:title></dc:title>
      </cc:Work>
    </rdf:RDF>
  </metadata>
  <g
     transform="translate(0,-42.51969)"
     id="layer1">
    <g
       transform="matrix(0.59109731,0,0,0.59109731,102.71166,42.450876)"
       id="g6">
      <path
         d="M 66,-4 96,16 66,36 z"
         transform="matrix(0,1,-1,0,97,-65)"
         id="path8"
         style="fill:#ffffff;stroke:#000000;stroke-miterlimit:10" />
      <path
         d="M 81,71 101,91 81,111 61,91 z"
         id="path10"
         style="fill:#ffffff;stroke:#000000;stroke-miterlimit:10" />
      <path
         d="m 81,31 0,36"
         id="path12"
         style="fill:none;stroke:#000000;stroke-width:2;stroke-miterlimit:10" />
      <path
         d="m 77,61 4,8 4,-8"
         id="path14"
         style="fill:none;stroke:#000000;stroke-width:2;stroke-miterlimit:10" />
      <path
         d="M 21,141 41,161 21,181 1,161 z"
         id="path16"
         style="fill:#ffffff;stroke:#000000;stroke-miterlimit:10" />
      <path
         d="M 72,102 33,147"
         id="path18"
         style="fill:none;stroke:#000000;stroke-width:2;stroke-miterlimit:10" />
      <path
         d="m 34,140 -2,9 8,-4"
         id="path20"
         style="fill:none;stroke:#000000;stroke-width:2;stroke-miterlimit:10" />
      <path
         d="m 81,141 20,20 -20,20 -20,-20 z"
         id="path22"
         style="fill:#ffffff;stroke:#000000;stroke-miterlimit:10" />
      <path
         d="m 141,141 20,20 -20,20 -20,-20 z"
         id="path24"
         style="fill:#ffffff;stroke:#000000;stroke-miterlimit:10" />
      <path
         d="m 81,211 20,20 -20,20 -20,-20 z"
         id="path26"
         style="fill:#ffffff;stroke:#000000;stroke-miterlimit:10" />
      <path
         d="M 132,172 93,217"
         id="path28"
         style="fill:none;stroke:#000000;stroke-width:2;stroke-miterlimit:10" />
      <path
         d="m 94,210 -2,9 8,-4"
         id="path30"
         style="fill:none;stroke:#000000;stroke-width:2;stroke-miterlimit:10" />
      <path
         d="m 141,211 20,20 -20,20 -20,-20 z"
         id="path32"
         style="fill:#ffffff;stroke:#000000;stroke-miterlimit:10" />
      <path
         d="m 81,111 0,30"
         id="path34"
         style="fill:none;stroke:#000000;stroke-miterlimit:10;stroke-dasharray:3, 3" />
      <path
         d="m 91,101 41,49"
         id="path36"
         style="fill:none;stroke:#000000;stroke-miterlimit:10;stroke-dasharray:3, 3" />
      <path
         d="m 141,181 0,30"
         id="path38"
         style="fill:none;stroke:#000000;stroke-miterlimit:10;stroke-dasharray:3, 3" />
      <path
         d="m 41,161 18,0"
         id="path40"
         style="fill:none;stroke:#000000;stroke-miterlimit:10" />
      <path
         d="m 53,165 7,-4 -7,-3"
         id="path42"
         style="fill:none;stroke:#000000;stroke-miterlimit:10" />
      <path
         d="m 101,161 18,0"
         id="path44"
         style="fill:none;stroke:#000000;stroke-miterlimit:10" />
      <path
         d="m 113,165 7,-4 -7,-3"
         id="path46"
         style="fill:none;stroke:#000000;stroke-miterlimit:10" />
      <path
         d="m 101,231 18,0"
         id="path48"
         style="fill:none;stroke:#000000;stroke-miterlimit:10" />
      <path
         d="m 113,235 7,-4 -7,-3"
         id="path50"
         style="fill:none;stroke:#000000;stroke-miterlimit:10" />
    </g>
  </g>
</svg>
