<svg xmlns="http://www.w3.org/2000/svg" xmlns:xlink="http://www.w3.org/1999/xlink" width="493px" height="159px" version="1.1"><defs/><g transform="translate(0.5,0.5)"><rect x="191" y="55" width="110" height="50" fill="#ffffff" stroke="#000000" pointer-events="none"/><g fill="#000000" font-family="Helvetica" text-anchor="middle" font-size="12px"><text x="246" y="84">Basis Aktor</text></g><rect x="381" y="55" width="110" height="50" fill="#ffffff" stroke="#000000" pointer-events="none"/><g fill="#000000" font-family="Helvetica" text-anchor="middle" font-size="12px"><text x="436" y="84">Dokumentelement</text></g><path d="M 301 81 L 379 80" fill="none" stroke="#000000" stroke-miterlimit="10" pointer-events="none"/><path d="M 373 84 L 380 80 L 373 77" fill="none" stroke="#000000" stroke-miterlimit="10" pointer-events="none"/><g fill="#000000" font-family="Helvetica" text-anchor="middle" font-size="11px"><rect fill="#ffffff" stroke="none" x="310" y="53" width="55" height="27" stroke-width="0"/><text x="337" y="62">enthält</text><text x="337" y="75">verfügbare</text></g><path d="M 227 55 L 217 43 Q 211 35 221 35 L 271 35 Q 281 35 275 43 L 267 53" fill="none" stroke="#000000" stroke-miterlimit="10" pointer-events="none"/><path d="M 268 46 L 266 54 L 273 51" fill="none" stroke="#000000" stroke-miterlimit="10" pointer-events="none"/><g fill="#000000" font-family="Helvetica" text-anchor="middle" font-size="11px"><rect fill="#ffffff" stroke="none" x="224" y="3" width="45" height="27" stroke-width="0"/><text x="246" y="12">kennt</text><text x="246" y="25">firstChild</text></g><path d="M 227 105 L 217 117 Q 211 125 221 125 L 271 125 Q 281 125 275 117 L 267 107" fill="none" stroke="#000000" stroke-miterlimit="10" pointer-events="none"/><path d="M 273 109 L 266 106 L 268 114" fill="none" stroke="#000000" stroke-miterlimit="10" pointer-events="none"/><g fill="#000000" font-family="Helvetica" text-anchor="middle" font-size="11px"><rect fill="#ffffff" stroke="none" x="232" y="133" width="29" height="27" stroke-width="0"/><text x="246" y="142">kennt</text><text x="246" y="155">next</text></g><rect x="1" y="55" width="110" height="50" fill="#ffffff" stroke="#000000" pointer-events="none"/><g fill="#000000" font-family="Helvetica" text-anchor="middle" font-size="12px"><text x="56" y="84">Wurzel Aktor</text></g><path d="M 113 68 L 191 68" fill="none" stroke="#000000" stroke-miterlimit="10" pointer-events="none"/><path d="M 119 64 L 112 68 L 119 71" fill="none" stroke="#000000" stroke-miterlimit="10" pointer-events="none"/><g fill="#000000" font-family="Helvetica" text-anchor="middle" font-size="11px"><rect fill="#ffffff" stroke="none" x="137" y="62" width="29" height="14" stroke-width="0"/><text x="151" y="71">kennt</text></g><path d="M 111 93 L 189 93" fill="none" stroke="#000000" stroke-miterlimit="10" pointer-events="none"/><path d="M 183 96 L 190 93 L 183 89" fill="none" stroke="#000000" stroke-miterlimit="10" pointer-events="none"/><g fill="#000000" font-family="Helvetica" text-anchor="middle" font-size="11px"><rect fill="#ffffff" stroke="none" x="127" y="87" width="50" height="14" stroke-width="0"/><text x="151" y="96">kennt alle</text></g></g></svg>