<?xml version="1.0" encoding="UTF-8" standalone="no"?>
<!-- Created with Inkscape (http://www.inkscape.org/) -->

<svg
   xmlns:dc="http://purl.org/dc/elements/1.1/"
   xmlns:cc="http://creativecommons.org/ns#"
   xmlns:rdf="http://www.w3.org/1999/02/22-rdf-syntax-ns#"
   xmlns:svg="http://www.w3.org/2000/svg"
   xmlns="http://www.w3.org/2000/svg"
   version="1.1"
   width="301.18109"
   height="74.409447"
   id="svg2"
   xml:space="preserve"><metadata
     id="metadata8"><rdf:RDF><cc:Work
         rdf:about=""><dc:format>image/svg+xml</dc:format><dc:type
           rdf:resource="http://purl.org/dc/dcmitype/StillImage" /><dc:title></dc:title></cc:Work></rdf:RDF></metadata><defs
     id="defs6" /><g
     transform="matrix(1.25,0,0,-1.25,0,74.409446)"
     id="g10"><path
       d="M 98.9375,0.125 C 82.742969,0.1384375 66.553125,0.21375 66.25,0.375 65.7625,0.63875 65.71875,1.09 65.71875,13.6875 c 0,9.8 0.07375,13.07875 0.3125,13.3125 0.23875,0.24375 7.81125,0.29875 33.03125,0.25 L 131.75,27.1875 131.84375,13.875 C 131.8975,3.3925 131.82125,0.51 131.5625,0.34375 131.30625,0.1825 115.13203,0.1115625 98.9375,0.125 z M 20.34375,0.90625 C 19.22,0.90625 18.105,0.985625 18,1.15625 17.9075,1.3025 17.42625,1.4375 16.9375,1.4375 c -0.4825,0 -0.94375,0.10875 -1.03125,0.25 -0.08875,0.14625 -0.45625,0.25 -0.8125,0.25 C 14.7425,1.9375 14.24875,2.06 14,2.1875 13.75125,2.31375 13.2675,2.51 12.90625,2.65625 11.31,3.29125 8.71875,4.675 8.71875,4.875 c 0,0.1225 -0.19125,0.21875 -0.40625,0.21875 -0.215,0 -0.375,0.10875 -0.375,0.25 C 7.9375,5.49 7.8075,5.625 7.65625,5.625 7.275,5.625 -0.19,13.09125 0,13.28125 c 0.3175,0.3175 1.3775,-0.54 4.53125,-3.71875 1.79625,-1.81625 3.605,-3.45625 4,-3.65625 C 8.9275,5.70125 9.25,5.43375 9.25,5.3125 c 0,-0.1175 0.22125,-0.21875 0.5,-0.21875 0.27375,0 0.51875,-0.11125 0.5625,-0.21875 0.12625,-0.27875 2.31625,-1.34375 2.75,-1.34375 0.2,0 0.375,-0.14 0.375,-0.28125 0,-0.14625 0.32625,-0.25 0.75,-0.25 0.42,0 0.84875,-0.10875 0.9375,-0.25 0.0925,-0.14625 0.53625,-0.28125 1,-0.28125 0.46875,0 0.97375,-0.13 1.125,-0.28125 0.18,-0.175 1.40375,-0.23375 3.40625,-0.15625 C 24.01,2.15875 25.64625,2.385 25.875,2.75 25.95375,2.8825 26.215,3 26.46875,3 c 0.57125,0 1.87,0.58 1.875,0.84375 0,0.1075 0.13125,0.1875 0.3125,0.1875 0.18,0 0.7425,0.35125 1.25,0.78125 0.5025,0.43 1.00875,0.8075 1.125,0.8125 0.1175,0 1.46125,1.2375 3,2.78125 1.5375,1.5475 3.3125,3.08 3.9375,3.40625 1.3375,0.69375 1.34375,0.6975 1.34375,0.21875 0,-0.2 -0.57875,-0.72625 -1.28125,-1.15625 C 36.82,10.12875 36.04375,9.4375 34.1875,7.40625 32.3425,5.385 29.91,3.42375 28.78125,3.0625 28.5275,2.985 28.34375,2.81375 28.34375,2.6875 28.34375,2.56 28.09,2.46875 27.8125,2.46875 c -0.27875,0 -0.56875,-0.10375 -0.65625,-0.25 C 27.0675,2.0775 26.665,1.9375 26.25,1.9375 25.835,1.9375 25.4,1.83375 25.3125,1.6875 25.225,1.54625 24.635,1.4375 24,1.4375 c -0.63,0 -1.19375,-0.135 -1.28125,-0.28125 -0.1075,-0.170625 -1.25125,-0.25 -2.375,-0.25 z m 46.6875,0.53125 63.8125,0 0,12.28125 0,12.28125 -63.8125,0 z M 18.59375,7.25 C 18.347261,7.25249 18.142187,7.25734 18,7.28125 c -0.56625,0.0925 -1.7325,0.225 -2.5625,0.3125 -0.825,0.08375 -1.5,0.27875 -1.5,0.40625 0,0.1275 -0.2625,0.21875 -0.59375,0.21875 C 12.7725,8.21875 12.0675,8.5075 9.25,9.875 8.605,10.1875 7.41625,11.12875 6.625,11.96875 5.83375,12.8075 4.2175,14.48625 3.03125,15.6875 1.845,16.88875 0.875,18.01875 0.875,18.21875 c 0,0.19625 0.375,0.72875 0.84375,1.1875 0.64875,0.63 1.18,0.8825 2.15625,1 1.69,0.2 2.47,0.505 4.84375,1.84375 2.1925,1.235 3.76625,1.81 6.28125,2.3125 4.18,0.84 9.4775,0.315 12.96875,-1.28125 1.66,-0.7625 4.2,-3.1875 5.09375,-4.90625 0.7175,-1.3825 1.03125,-1.48125 2.28125,-0.71875 0.47375,0.2825 0.9525,0.5 1.09375,0.5 0.48375,0 0.2725,-0.83125 -0.25,-0.96875 C 35.9,17.11 35.65625,16.94 35.65625,16.8125 c 0,-0.13125 -0.1525,-0.21875 -0.34375,-0.21875 -0.195,0 -1.02375,-0.72125 -1.84375,-1.625 C 29.67875,10.82875 28.5025,9.7275 27.125,9 26.32,8.575 25.4625,8.21875 25.21875,8.21875 24.97375,8.21875 24.6675,8.12125 24.53125,8 24.185625,7.6839063 20.319175,7.2325684 18.59375,7.25 z m 0.34375,0.96875 c 3.1975,0 3.74,0.08375 4.59375,0.5625 1.33875,0.7525 2.29625,1.81 3.15625,3.5625 0.625,1.275 0.71875,1.81375 0.71875,3.71875 0,1.82625 -0.1025,2.4675 -0.625,3.53125 -0.7425,1.51375 -2.0825,3.07375 -3.25,3.78125 -0.97625,0.59125 -3.22875,0.76375 -6.40625,0.5 -2.76,-0.22875 -3.45375,-0.52875 -4.71875,-1.96875 -1.685,-1.91375 -2.125,-3.11125 -2.125,-5.96875 0,-1.48375 -0.09375,-2.5 -0.25,-2.5 -0.15625,0 -0.28125,1.0675 -0.28125,2.625 0,1.45 0.13375,2.6625 0.28125,2.75 0.14125,0.0925 0.25,0.46125 0.25,0.8125 0,0.35125 0.13875,0.625 0.28125,0.625 0.14625,0 0.25,0.19125 0.25,0.40625 0,0.22 0.10875,0.375 0.25,0.375 0.1475,0 0.28125,0.16375 0.28125,0.34375 0,0.18625 0.22125,0.48625 0.5,0.6875 0.2775,0.2 0.43875,0.455 0.375,0.5625 C 11.975,23.02 10.66875,22.38875 7.75,20.5 7.4275,20.29 7.15625,19.93125 7.15625,19.6875 c 0,-0.245 -0.135,-0.5375 -0.28125,-0.625 -0.38625,-0.23875 -0.3325,-5.23375 0.0625,-5.9375 0.45,-0.805 2.085,-2.28125 2.5,-2.28125 0.18625,0 0.3125,-0.13375 0.3125,-0.28125 0,-0.14125 0.24375,-0.25 0.53125,-0.25 0.28375,0 0.53125,-0.1025 0.53125,-0.25 0,-0.14125 0.24375,-0.28125 0.53125,-0.28125 0.655,0 0.655,0.14125 0,0.84375 -0.2875,0.3075 -0.53125,0.715 -0.53125,0.90625 0,0.185 -0.10375,0.34375 -0.25,0.34375 -0.1425,0 -0.28125,0.32125 -0.28125,0.6875 0,0.38125 0.13375,0.5925 0.28125,0.5 0.14625,-0.08875 0.25,-0.37875 0.25,-0.65625 0,-0.27875 0.10875,-0.53125 0.25,-0.53125 0.1475,0 0.28125,-0.14875 0.28125,-0.34375 0,-0.66375 2.26,-2.78125 2.96875,-2.78125 0.365,0 0.72375,-0.10875 0.8125,-0.25 0.0975,-0.15625 1.66875,-0.28125 3.8125,-0.28125 z M 25.75,9.3125 c 0.163169,0.011228 0.477656,0.1257813 0.9375,0.34375 1.635,0.78125 6.34375,5.84125 6.34375,6.8125 0,0.35625 -0.07625,0.65625 -0.1875,0.65625 -0.1075,0 -0.38625,0.4525 -0.625,1 -0.7425,1.70875 -3.265,3.93625 -5.21875,4.625 -0.605,0.21 -1.29875,0.375 -1.5625,0.375 -0.40125,0 -0.375,-0.12375 0.25,-0.8125 0.41,-0.445 1.09,-1.47125 1.5,-2.28125 C 27.85625,18.7125 27.92625,18.2875 27.90625,16.1875 27.8775,13.585 27.2725,11.49 26.125,10.15625 25.614844,9.5640625 25.478052,9.2937866 25.75,9.3125 z m 21.15625,1 c -0.1475,0 -0.28125,0.10875 -0.28125,0.25 0,0.1475 -0.2125,0.28125 -0.5,0.28125 -0.28875,0 -0.53125,0.10875 -0.53125,0.25 0,0.1475 -0.24375,0.28125 -0.53125,0.28125 -0.28875,0 -0.53125,0.10375 -0.53125,0.25 0,0.1425 -0.2125,0.25 -0.5,0.25 -0.28875,0 -0.53125,0.135 -0.53125,0.28125 0,0.14125 -0.24875,0.25 -0.53125,0.25 -0.28875,0 -0.53125,0.10375 -0.53125,0.25 0,0.14125 -0.2125,0.28125 -0.5,0.28125 -0.28875,0 -0.53125,0.10375 -0.53125,0.25 0,0.14125 -0.18875,0.25 -0.4375,0.25 -0.82125,0 0.20375,0.73875 3.09375,2.21875 1.495,0.76625 2.79875,1.42375 2.90625,1.4375 0.1075,0.02 0.1875,-0.2125 0.1875,-0.5 0,-0.28875 -0.10875,-0.53125 -0.25,-0.53125 -0.1475,0 -0.28125,-0.34625 -0.28125,-0.78125 l 0,-0.78125 6.625,0 c 4.79875,0 6.70875,-0.0825 6.9375,-0.3125 1.02125,-1.015 -0.3475,-1.25 -7.28125,-1.25 l -6.28125,0 0,-0.78125 c 0,-0.43375 0.13375,-0.78125 0.28125,-0.78125 0.14125,0 0.25,-0.2425 0.25,-0.53125 0,-0.2875 -0.10875,-0.53125 -0.25,-0.53125 z m -28.25,0.15625 c -0.249802,0.01245 -0.51625,0.05359 -0.75,0.125 -2.6075,0.79625 -3.3375,1.545 -4.25,4.25 -0.26875,0.79125 -0.26875,1.14625 0,1.9375 0.78125,2.315 1.40625,3.11375 3.03125,3.8125 2.13375,0.9125 5.1075,0.0775 6.40625,-1.8125 0.9275,-1.3525 1.05375,-3.59625 0.28125,-5.1875 -0.926406,-1.918438 -2.970134,-3.212141 -4.71875,-3.125 z m 2.1875,3.5 c 0.307793,0.02285 0.6875,0.34125 0.6875,0.65625 0,0.5225 -0.76875,0.5225 -0.96875,0 -0.0875,-0.22 -0.0825,-0.47375 0,-0.5625 0.06594,-0.06563 0.178652,-0.101367 0.28125,-0.09375 z m -15.5,1.0625 c 0.0975,0 0.24,0.67 0.3125,1.5 0.07375,0.825 0.215,1.875 0.3125,2.34375 l 0.1875,0.84375 -1.28125,0 c -1.46,-0.02 -2.1875,-0.315 -2.65625,-1.0625 -0.405,-0.64875 -0.0925,-1.11375 1.1875,-1.71875 0.4875,-0.23 1.06875,-0.74125 1.3125,-1.15625 0.245,-0.415 0.5225,-0.75 0.625,-0.75 z M 33.78125,19.75 c -0.06234,0.01656 -0.121875,0.0925 -0.15625,0.1875 -0.06375,0.18 -0.2525,0.3125 -0.4375,0.3125 -0.185,0 -0.80375,0.475 -1.375,1.03125 -1.29,1.25 -4.0925,3.15625 -4.625,3.15625 -0.215,0 -0.4525,0.1175 -0.53125,0.25 -0.17,0.2725 -1.495,0.53375 -3.6875,0.71875 -0.86375,0.0775 -1.67625,0.2425 -1.8125,0.375 -0.5175,0.4975 -3.99,0.1425 -7.59375,-0.75 C 12.6975,24.82125 11.61,24.555 11.15625,24.4375 10.70125,24.325 9.6525,23.82 8.8125,23.3125 6.86375,22.14 4.80875,21.44125 4.4375,21.8125 c -0.19125,0.19 -0.10625,0.28125 0.25,0.28125 0.625,0.005 3.0725,1.12875 3.9375,1.8125 0.68375,0.5325 3.39375,1.41 6.5,2.09375 1.61625,0.35625 5.2575,0.285 7.71875,-0.125 3.48625,-0.58125 5.5,-1.105 5.5,-1.4375 0,-0.1075 0.34625,-0.355 0.78125,-0.53125 0.43,-0.18 0.78125,-0.415 0.78125,-0.53125 0,-0.1175 0.215,-0.26125 0.46875,-0.34375 0.25875,-0.08375 1.09125,-0.73 1.84375,-1.4375 0.75625,-0.7125 1.51625,-1.3425 1.6875,-1.40625 C 34.0925,20.12375 34.13125,19.975 34,19.84375 33.93125,19.775 33.843594,19.733438 33.78125,19.75 z m 23.875,7.03125 c -1.1325,0 -2.7775,0.095 -3.65625,0.1875 l -1.59375,0.15625 0.78125,0.71875 c 0.825,0.77625 0.965,1.34 0.4375,1.75 C 53.445,29.735 52.315,30.375 51.09375,31 c -1.22,0.625 -2.26375,1.23125 -2.3125,1.34375 -0.05,0.11125 -0.315,0.1875 -0.59375,0.1875 -0.27375,0 -0.5,0.10625 -0.5,0.21875 0,0.1075 -0.27125,0.3225 -0.59375,0.46875 -1.22125,0.56625 -2.94875,1.56 -3.03125,1.75 -0.04875,0.1075 -0.29875,0.1875 -0.5625,0.1875 -0.26375,0 -0.51875,0.08 -0.5625,0.1875 -0.08875,0.19 -1.81625,1.22 -3.03125,1.78125 -0.3225,0.15125 -0.59375,0.36125 -0.59375,0.46875 0,0.1075 -0.2475,0.1875 -0.53125,0.1875 -0.2875,0 -0.5,0.08 -0.5,0.1875 0,0.1075 -0.2725,0.33875 -0.59375,0.5 -1.24125,0.605 -2.94125,1.54 -3.0625,1.6875 -0.07375,0.0775 -0.34,0.22 -0.59375,0.3125 -0.24875,0.09375 -0.46875,0.42625 -0.46875,0.71875 0,0.45375 0.10875,0.49 0.71875,0.34375 0.395,-0.0975 0.77125,-0.255 0.84375,-0.34375 C 35.19375,41.1 35.78875,40.75375 36.4375,40.40625 37.0825,40.065 38.08,39.5575 38.65625,39.25 39.2325,38.9475 39.77,38.63625 39.84375,38.5625 40,38.40625 42.08125,37.26 42.90625,36.875 43.22875,36.7275 43.5,36.5125 43.5,36.40625 c 0,-0.1075 0.2425,-0.1875 0.53125,-0.1875 0.2875,0 0.5,-0.11125 0.5,-0.21875 0.005,-0.1075 0.2725,-0.3175 0.59375,-0.46875 1.21625,-0.56625 2.94875,-1.565 3.03125,-1.75 0.04875,-0.1075 0.32,-0.1875 0.59375,-0.1875 0.27875,0 0.5,-0.075 0.5,-0.1875 0.005,-0.1075 0.27125,-0.34 0.59375,-0.5 0.3225,-0.16125 1.56375,-0.78625 2.75,-1.40625 2.1,-1.09875 2.16125,-1.11875 2.53125,-0.625 0.21,0.27875 0.40125,0.77125 0.40625,1.09375 0.015,1.06375 0.41875,0.70875 2.09375,-1.78125 0.63,-0.9325 1.22625,-1.7325 1.34375,-1.78125 C 59.09,28.3625 59.1875,28.1375 59.1875,27.9375 c 0,-0.205 0.10375,-0.34375 0.25,-0.34375 0.1425,0 0.28125,-0.1875 0.28125,-0.40625 0,-0.3125 -0.4125,-0.40625 -2.0625,-0.40625 z m 28.21875,2.375 c -0.25,0 -3.135,5.78875 -3.125,6.28125 0,0.24875 0.06,0.28 0.1875,0.09375 0.1025,-0.15625 0.71125,-0.35 1.375,-0.4375 1.1675,-0.15625 1.21125,-0.15625 1.09375,0.46875 -0.0675,0.35125 -0.0525,0.81125 0.03125,1.03125 0.34625,0.9025 1.3125,0.175 1.15625,-0.875 L 86.5,34.9375 87.78125,35.09375 C 88.52875,35.18125 89.0375,35.1375 88.96875,35 88.9,34.86875 88.20375,33.51625 87.4375,31.96875 c -0.76625,-1.5475 -1.45625,-2.8125 -1.5625,-2.8125 z m 26,0 c -0.5625,0 -0.625,0.65625 -0.625,4.71875 0,3.68625 -0.0525,3.90625 -0.53125,3.90625 -0.27875,0 -0.56875,-0.14 -0.65625,-0.28125 -0.16125,-0.25875 -1.4375,-0.375 -1.4375,-0.125 0,0.0675 0.675,1.5 1.5,3.15625 0.825,1.655 1.59875,3 1.75,3 0.22,0 3.28125,-5.73625 3.28125,-6.15625 0,-0.245 -1.0275,-0.13375 -1.1875,0.125 -0.0888,0.14125 -0.43,0.28125 -0.78125,0.28125 l -0.65625,0 0,-3.90625 c 0,-4.0625 -0.095,-4.71875 -0.65625,-4.71875 z m -96.03125,8.625 c -0.41125,0.02313 -0.92375,0.1575 -1.34375,0.375 -1.50875,0.78125 -1.59375,1.16125 -1.59375,7.1875 0,3.49125 -0.08375,5.5 -0.25,5.5 -0.14625,0 -0.2775,-0.13625 -0.28125,-0.3125 C 12.36,49.8675 11.0675,49.24 9.75,49.25 c -1.5975,0.015 -2.605,0.85375 -2.625,2.1875 -0.00875,0.46875 0.5675,2.86625 1.28125,5.3125 0.95625,3.28625 1.60375,5.01625 2.53125,6.65625 2.3975,4.2525 2.98125,5.3575 3.40625,6.65625 0.7325,2.26125 0.96125,2.7175 1.40625,2.84375 0.58625,0.17125 9.95875,0.0825 10.1875,-0.09375 0.68375,-0.5125 1.085,-2.085 2.6875,-10.46875 0.14625,-0.79125 0.3625,-1.77375 0.5,-2.21875 0.33625,-1.09375 0.33625,-11.545 0,-11.75 -0.14625,-0.08875 -0.28125,-0.3475 -0.28125,-0.5625 0,-0.7075 -0.76875,-1.20125 -1.84375,-1.1875 -0.63,0.01 -1.03125,-0.1225 -1.03125,-0.3125 0,-0.17125 -0.2825,-0.63625 -0.625,-1.03125 -0.5375,-0.625 -0.7775,-0.71875 -2.0625,-0.71875 -1.425,0 -1.5,-0.0087 -1.5,-0.6875 0,-1.21125 -0.93,-1.90625 -2.53125,-1.90625 l -1.375,0 0,-1.1875 c 0,-1.3325 -0.45625,-2.46875 -0.96875,-2.46875 -0.195,0 -0.34375,-0.135 -0.34375,-0.28125 0,-0.1925 -0.3075,-0.273125 -0.71875,-0.25 z m 70.25,0.5625 c -0.5125,-0.0975 -0.86875,0.765 -0.625,1.53125 0.2,0.625 0.3,0.63875 0.8125,0.125 C 86.78,39.5025 86.67,38.45125 86.09375,38.34375 z m -70.5,0.5 c 0.263594,0.0055 0.545,0.12375 0.90625,0.375 0.57125,0.40125 0.59375,0.50375 0.59375,6.8125 0,6.215 -0.0075,6.40625 0.5,6.40625 0.5025,0 0.53125,-0.1875 0.53125,-4.40625 0,-3.06625 0.0925,-4.5 0.3125,-4.71875 0.46375,-0.46375 1.97,-0.4 2.15625,0.09375 0.0875,0.22875 0.15625,2.235 0.15625,4.4375 0,3.32 0.0525,4.035 0.375,4.15625 1.00125,0.38625 1.1875,-0.04625 1.1875,-2.84375 0,-1.485 0.06875,-2.89625 0.15625,-3.125 0.19125,-0.49375 1.6925,-0.5575 2.15625,-0.09375 0.21,0.21 0.3125,1.4375 0.3125,3.78125 0,2.26125 0.095,3.5075 0.28125,3.625 0.5225,0.3225 0.745,-0.4775 0.75,-2.65625 0.005,-2.65625 0.12625,-2.96875 1.09375,-2.96875 1.1325,0 1.28125,0.6925 1.28125,6.3125 0,4.51625 -0.08375,5.27875 -0.78125,8.53125 -0.425,1.9675 -1.01,4.7525 -1.3125,6.1875 -0.3025,1.43125 -0.59625,2.63625 -0.625,2.65625 -0.14625,0.11125 -8.9725,0.29 -9.25,0.1875 C 16.19375,71.53 16.03125,71.2925 16.03125,71.0625 c 0,-0.6875 -0.94125,-3.3475 -1.3125,-3.71875 -0.0725,-0.07375 -0.285,-0.5075 -0.5,-0.9375 C 14.00375,65.9775 13.38,64.8975 12.84375,64 c -0.5425,-0.89875 -1,-1.76 -1,-1.90625 0,-0.14625 -0.1025,-0.25 -0.25,-0.25 -0.14125,0 -0.25,-0.2425 -0.25,-0.53125 0,-0.2875 -0.13375,-0.53125 -0.28125,-0.53125 -0.14125,0 -0.25,-0.325 -0.25,-0.75 0,-0.42 -0.10375,-0.85 -0.25,-0.9375 -0.1425,-0.0925 -0.28125,-0.49125 -0.28125,-0.90625 0,-0.41625 -0.10875,-0.85 -0.25,-0.9375 C 9.88875,57.1625 9.75,56.75875 9.75,56.34375 9.75,55.92875 9.64125,55.52625 9.5,55.4375 9.3525,55.35 9.25,54.915 9.25,54.5 9.25,54.09 9.12625,53.6975 9,53.625 8.7075,53.43875 8.42875,51.2375 8.625,50.71875 8.73125,50.44625 9.13,50.3125 9.90625,50.3125 c 1.19625,0 1.31,0.1225 2.21875,2.5 1,2.6175 1.3725,3.30125 1.8125,3.21875 0.35625,-0.06875 0.40625,-1.09875 0.46875,-8.28125 0.05375,-6.64625 0.135,-8.265 0.4375,-8.5625 0.239375,-0.239375 0.486406,-0.349219 0.75,-0.34375 z m 70.34375,2.6875 c -0.123477,-0.01656 -0.24875,0.03625 -0.34375,0.1875 -0.27875,0.435 -0.3125,0.84 -0.09375,1.40625 0.24,0.63 0.84625,0.4725 1.03125,-0.25 C 86.685,42.26 86.30793,41.580937 85.9375,41.53125 z M 81.25,45.625 C 67.789082,45.65353 65.980937,45.749063 65.875,46.03125 65.7875,46.26 65.71875,52.2325 65.71875,59.3125 c 0,9.6875 0.07375,12.94875 0.3125,13.1875 0.23875,0.24 7.81125,0.30375 33.03125,0.25 l 32.6875,-0.0625 0.15625,-27.0625 -32.9375,0 c -7.44625,0 -13.231777,-0.0095 -17.71875,0 z m -14.21875,1.03125 63.8125,0 0,12.4375 0,12.40625 -63.8125,0 z"
       transform="matrix(0.8,0,0,-0.8,0,59.527557)"
       id="path14"
       style="fill:#000000;fill-opacity:1;fill-rule:nonzero;stroke:none" /><path
       d="m 146.418,0.43 c -0.258,0.226 -0.684,1.121 -0.961,2.031 -0.269,0.899 -0.547,1.68 -0.617,1.742 -0.067,0.059 -0.227,0.305 -0.36,0.543 -0.57,1.047 -0.855,1.528 -0.96,1.629 -0.059,0.063 -0.352,0.598 -0.649,1.199 -0.297,0.598 -0.586,1.133 -0.648,1.196 -0.262,0.25 -0.657,1.105 -0.657,1.414 0,0.179 -0.086,0.5 -0.195,0.707 -0.105,0.207 -0.316,0.918 -0.469,1.574 -0.148,0.656 -0.504,1.918 -0.781,2.805 -0.668,2.101 -0.66,2.937 0.035,3.633 0.442,0.441 0.766,0.546 1.68,0.554 0.992,0.008 1.203,-0.074 1.726,-0.66 0.348,-0.387 0.653,-0.57 0.735,-0.441 0.078,0.125 0.07,2.062 -0.016,4.308 -0.172,4.41 -0.125,4.676 0.961,5.621 0.82,0.707 1.793,0.641 2.613,-0.179 0.563,-0.563 0.668,-0.836 0.668,-1.723 l 0,-1.051 0.997,0 c 1.183,0 1.765,-0.437 1.957,-1.469 0.136,-0.71 0.144,-0.714 1.148,-0.605 0.852,0.094 1.102,0.027 1.609,-0.422 0.328,-0.289 0.598,-0.683 0.598,-0.871 0,-0.254 0.266,-0.359 1.031,-0.41 0.938,-0.059 1.071,-0.137 1.414,-0.828 0.325,-0.645 0.379,-1.403 0.383,-5 0.004,-4.012 -0.039,-4.446 -0.773,-8.047 -0.43,-2.09 -0.871,-4.106 -0.985,-4.473 -0.109,-0.367 -0.203,-0.969 -0.203,-1.336 0,-0.41 -0.187,-0.847 -0.488,-1.133 -0.449,-0.429 -0.793,-0.476 -4.406,-0.585 -3.602,-0.114 -3.957,-0.09 -4.387,0.277 z m 8.117,1.055 c 0.133,0.043 0.301,0.398 0.371,0.796 0.16,0.942 0.496,2.618 0.793,3.989 0.129,0.597 0.321,1.574 0.426,2.172 0.105,0.597 0.293,1.527 0.422,2.066 0.289,1.23 0.312,8.91 0.027,9.664 -0.14,0.375 -0.375,0.555 -0.715,0.555 -0.871,0 -1.027,-0.387 -1.027,-2.559 0,-1.824 -0.043,-2.031 -0.383,-1.965 -0.332,0.063 -0.387,0.407 -0.441,2.883 -0.035,1.617 -0.16,2.93 -0.297,3.098 -0.133,0.156 -0.477,0.285 -0.77,0.285 -0.984,0 -1.156,-0.43 -1.156,-2.898 0,-1.77 -0.066,-2.301 -0.308,-2.395 -0.598,-0.227 -0.739,0.422 -0.813,3.723 -0.074,3.441 -0.16,3.738 -1.051,3.738 -0.898,0 -0.976,-0.285 -1.09,-4.063 -0.093,-3.25 -0.148,-3.656 -0.488,-3.718 -0.351,-0.067 -0.379,0.289 -0.379,5.09 0,4.5 -0.047,5.214 -0.359,5.562 -0.434,0.477 -1.078,0.512 -1.504,0.086 -0.258,-0.258 -0.313,-1.488 -0.313,-6.957 0,-6.301 -0.019,-6.649 -0.398,-6.649 -0.219,0 -0.5,0.219 -0.621,0.489 -0.352,0.761 -0.914,2.136 -1.371,3.359 -0.164,0.434 -0.438,0.719 -0.731,0.766 -0.847,0.125 -1.445,-0.09 -1.558,-0.563 -0.223,-0.933 1.629,-7.308 2.691,-9.269 0.422,-0.778 0.867,-1.633 0.996,-1.903 0.129,-0.269 0.305,-0.488 0.395,-0.488 0.09,0 0.164,-0.199 0.164,-0.437 0,-0.239 0.098,-0.434 0.215,-0.434 0.121,0 0.222,-0.125 0.222,-0.273 0.004,-0.149 0.2,-0.516 0.43,-0.817 0.234,-0.297 0.43,-0.758 0.43,-1.019 0.004,-0.262 0.105,-0.536 0.222,-0.61 0.122,-0.074 0.219,-0.414 0.219,-0.758 0,-0.339 0.121,-0.664 0.274,-0.722 0.289,-0.11 7.058,0.051 7.476,0.176 z m 32.84,-0.836 c -0.078,0.082 -0.145,4.859 -0.145,10.613 0,8.035 0.063,10.555 0.274,10.84 0.254,0.344 2.051,0.367 26.801,0.312 l 26.527,-0.054 0.055,-10.926 0.058,-10.93 -26.711,0 c -14.691,0 -26.777,0.067 -26.859,0.145 z m 52.645,10.785 -0.059,10.054 -25.508,0.055 c -17.336,0.039 -25.644,-0.015 -25.93,-0.168 -0.41,-0.219 -0.421,-0.547 -0.421,-10.113 l 0,-9.887 51.972,0 z M 177.23,9.258 c 0.004,0.27 0.094,0.625 0.2,0.797 0.527,0.832 0.179,0.887 -5.676,0.887 -5.262,0 -5.641,0.027 -5.574,0.382 0.066,0.348 0.566,0.391 5.722,0.489 4.883,0.093 5.641,0.152 5.563,0.433 -0.215,0.797 -0.274,1.789 -0.098,1.715 0.672,-0.285 2.817,-1.39 2.906,-1.5 0.059,-0.07 0.45,-0.265 0.868,-0.43 1.093,-0.433 1.484,-1.089 0.652,-1.089 -0.238,0 -0.434,-0.098 -0.434,-0.215 0,-0.121 -0.195,-0.219 -0.433,-0.219 -0.238,0 -0.438,-0.098 -0.438,-0.219 0,-0.117 -0.168,-0.218 -0.379,-0.218 -0.211,-0.004 -0.871,-0.297 -1.468,-0.649 -1.309,-0.777 -1.414,-0.789 -1.411,-0.164 z m 36.633,15.004 c -0.054,0.148 -0.125,1.594 -0.156,3.207 l -0.055,2.937 -0.847,0.067 c -0.532,0.043 -0.918,-0.035 -1.032,-0.215 -0.144,-0.23 -0.183,-0.223 -0.183,0.035 -0.004,0.371 2.402,5.223 2.59,5.219 0.136,0 2.41,-4.57 2.406,-4.836 0,-0.09 -0.391,-0.164 -0.867,-0.164 l -0.871,0 0,-2.84 c 0,-2.695 -0.18,-3.684 -0.668,-3.684 -0.118,0 -0.262,0.125 -0.317,0.274 z m -26.371,13.254 c -0.195,0.195 -0.262,2.887 -0.262,10.863 0,10.262 0.016,10.613 0.422,10.828 0.504,0.274 52.594,0.317 53.02,0.047 0.215,-0.137 0.262,-2.488 0.215,-11.031 l -0.055,-10.86 -26.539,-0.054 c -20.461,-0.043 -26.598,0.004 -26.801,0.207 z m 52.578,10.828 0,10.004 -51.968,0 0,-9.86 c 0,-5.421 0.062,-9.921 0.144,-10 0.078,-0.082 11.774,-0.148 25.984,-0.148 l 25.84,0 z m -94.371,-9.898 -2.156,0.542 c -1.281,0.325 -3.063,1.102 -3.063,1.336 0,0.106 -0.195,0.192 -0.437,0.192 -0.238,0 -0.434,0.097 -0.434,0.219 0,0.117 -0.195,0.214 -0.433,0.214 -0.242,0 -0.438,0.098 -0.438,0.219 0,0.121 -0.293,0.219 -0.652,0.219 -0.356,0 -0.652,0.098 -0.652,0.215 0,0.59 1.636,0.125 3.171,-0.899 0.793,-0.527 2.395,-1.117 4.657,-1.711 1.449,-0.379 4.515,-0.711 5.136,-0.554 0.344,0.086 1.215,0.238 1.934,0.34 0.715,0.097 1.699,0.269 2.184,0.378 1.062,0.239 3.359,1.336 3.359,1.602 0,0.105 0.105,0.191 0.234,0.191 0.129,0 0.594,0.368 1.036,0.817 0.437,0.449 1.066,0.953 1.394,1.125 0.328,0.168 0.598,0.394 0.598,0.5 0,0.109 0.097,0.137 0.215,0.062 0.246,-0.152 -0.301,-0.738 -1.739,-1.847 -0.535,-0.418 -1.148,-0.914 -1.355,-1.102 -1.434,-1.297 -4.61,-2.109 -8.863,-2.269 -1.696,-0.063 -2.887,0.007 -3.696,0.211 z m -0.476,1.281 c -1.157,0.254 -2.176,0.535 -2.266,0.625 -0.086,0.09 -0.297,0.164 -0.469,0.164 -0.172,0 -0.586,0.195 -0.926,0.437 -1.355,0.965 -3.105,1.739 -3.933,1.739 -1.266,0 -3.02,1.168 -3.02,2.011 0,0.223 0.758,1.164 1.684,2.086 0.926,0.926 2.09,2.117 2.586,2.653 1.078,1.16 1.746,1.73 2.039,1.73 0.117,0 0.215,0.074 0.215,0.16 0.004,0.196 1.055,0.707 1.457,0.707 0.152,0 0.281,0.098 0.281,0.219 0,0.121 0.149,0.219 0.328,0.219 0.184,0 0.5,0.09 0.707,0.203 0.672,0.359 2.426,0.676 4.469,0.805 3.27,0.211 6.883,-0.59 8.492,-1.879 0.848,-0.676 2.965,-2.809 2.965,-2.985 0,-0.261 2.141,-2.261 3.098,-2.894 0.91,-0.602 1.027,-0.864 0.382,-0.864 -0.238,0 -0.437,0.09 -0.437,0.196 0,0.105 -0.344,0.258 -0.766,0.336 -0.839,0.16 -1.089,-0.008 -1.625,-1.074 -0.179,-0.36 -0.644,-0.993 -1.031,-1.415 -0.387,-0.418 -0.703,-0.832 -0.707,-0.921 0,-0.09 -0.125,-0.164 -0.273,-0.164 -0.153,0 -0.399,-0.196 -0.547,-0.434 -0.149,-0.242 -0.418,-0.438 -0.598,-0.438 -0.176,0 -0.324,-0.097 -0.324,-0.214 0,-0.122 -0.195,-0.219 -0.434,-0.219 -0.238,0 -0.433,-0.098 -0.433,-0.219 0,-0.117 -0.184,-0.215 -0.41,-0.215 -0.223,0 -1.176,-0.195 -2.118,-0.433 -2.293,-0.578 -5.547,-0.547 -8.386,0.078 z m 7.609,0.715 c 0.16,0.16 0.375,0.293 0.48,0.293 0.235,0 1.516,1.343 1.516,1.589 0.004,0.098 0.156,0.332 0.34,0.516 0.184,0.188 0.394,0.621 0.461,0.965 0.07,0.344 0.211,0.625 0.316,0.625 0.25,0 0.246,3.59 0,4.082 -0.105,0.207 -0.328,0.668 -0.492,1.027 -0.16,0.36 -0.367,0.75 -0.457,0.871 -0.808,1.102 -1.359,1.618 -2.172,2.036 -0.879,0.453 -1.172,0.484 -3.769,0.394 -1.547,-0.051 -3.121,-0.164 -3.5,-0.25 -0.793,-0.184 -2.25,-1.426 -2.25,-1.918 0,-0.184 -0.075,-0.367 -0.168,-0.406 -0.094,-0.039 -0.336,-0.414 -0.539,-0.836 -0.356,-0.731 -0.368,-0.738 -0.375,-0.18 0,0.321 0.07,0.613 0.16,0.653 0.258,0.113 0.98,1.503 0.847,1.632 -0.148,0.153 -1.445,-0.418 -1.445,-0.636 0,-0.09 -0.148,-0.164 -0.328,-0.164 -0.18,0 -0.324,-0.098 -0.324,-0.215 0,-0.121 -0.102,-0.219 -0.227,-0.219 -0.332,0 -1.148,-0.883 -1.461,-1.586 -0.578,-1.301 -0.269,-4.93 0.489,-5.707 0.664,-0.68 3.004,-2.059 3.488,-2.059 0.441,0 0.402,0.149 -0.215,0.817 -0.297,0.316 -0.648,0.875 -0.785,1.238 -0.137,0.367 -0.336,0.859 -0.442,1.102 -0.285,0.64 -0.378,2.238 -0.195,3.476 0.137,0.93 0.164,0.778 0.188,-1.031 0.015,-1.25 0.117,-2.121 0.246,-2.121 0.121,0 0.219,-0.156 0.219,-0.352 0,-0.968 1.648,-3.078 2.824,-3.617 1.254,-0.57 7.004,-0.586 7.57,-0.019 z m -4.742,2.019 c -0.18,0.098 -0.621,0.313 -0.977,0.477 -0.801,0.363 -1.418,0.965 -1.851,1.797 -0.364,0.703 -0.434,3.543 -0.094,3.789 0.113,0.082 0.332,0.39 0.484,0.691 0.352,0.68 1.614,1.52 2.282,1.52 0.277,0 0.609,0.105 0.738,0.234 0.531,0.531 2.91,-0.699 3.82,-1.969 0.528,-0.734 0.598,-1.031 0.598,-2.484 0,-0.957 -0.09,-1.653 -0.215,-1.653 -0.121,0 -0.219,-0.121 -0.219,-0.269 0,-0.391 -0.883,-1.32 -1.523,-1.606 -1.738,-0.777 -2.383,-0.89 -3.043,-0.527 z m 3.262,4.887 c 0,0.051 -0.059,0.246 -0.133,0.433 -0.188,0.493 -0.739,0.426 -0.739,-0.089 0,-0.289 0.149,-0.434 0.438,-0.434 0.238,0 0.434,0.039 0.434,0.09 z m 3.863,-6.633 c 0.207,0.109 0.769,0.371 1.246,0.578 0.934,0.406 3.371,2.774 3.371,3.27 0,0.168 0.074,0.304 0.164,0.304 0.195,0 0.707,1.055 0.707,1.45 0,0.265 -0.656,1.023 -3.152,3.629 -1.168,1.218 -2.621,2.183 -2.965,1.968 -0.121,-0.074 -0.039,-0.285 0.191,-0.492 1.328,-1.195 2.02,-4.144 1.582,-6.742 -0.144,-0.856 -0.351,-1.555 -0.461,-1.555 -0.109,0 -0.199,-0.125 -0.199,-0.273 0,-0.153 -0.34,-0.664 -0.754,-1.141 -0.418,-0.48 -0.761,-0.941 -0.761,-1.031 -0.008,-0.227 0.574,-0.207 1.031,0.035 z m -16.582,3.441 c -0.086,0.332 -0.203,1.165 -0.262,1.852 -0.113,1.352 -0.277,1.527 -0.695,0.75 -0.145,-0.273 -0.699,-0.762 -1.231,-1.082 -1.082,-0.652 -1.191,-1.023 -0.492,-1.672 0.359,-0.332 0.77,-0.445 1.656,-0.445 l 1.18,0 z m 31.637,2.321 c -0.778,0.398 -1.766,0.883 -2.2,1.078 -0.953,0.422 -1.523,1.008 -0.98,1.008 0.195,0 0.351,0.097 0.351,0.215 0,0.121 0.2,0.218 0.438,0.218 0.238,0 0.433,0.098 0.433,0.219 0,0.117 0.196,0.215 0.434,0.215 0.242,0 0.438,0.098 0.438,0.219 0,0.121 0.195,0.218 0.433,0.218 0.238,0 0.434,0.098 0.434,0.215 0,0.121 0.199,0.219 0.437,0.219 0.239,0 0.434,0.098 0.434,0.219 0,0.117 0.187,0.215 0.418,0.215 0.226,0 0.469,0.125 0.531,0.273 0.067,0.148 0.063,-0.242 -0.008,-0.871 l -0.129,-1.141 5.207,0 c 5.457,0 6.137,-0.109 5.821,-0.929 -0.129,-0.34 -0.641,-0.375 -5.68,-0.375 -5.172,0 -5.527,-0.024 -5.422,-0.379 0.305,-1.039 0.379,-1.578 0.211,-1.571 -0.105,0.004 -0.824,0.332 -1.601,0.735 z m -36.532,2.355 c 0,0.176 0.309,0.551 0.688,0.84 0.379,0.285 0.797,0.649 0.926,0.805 1.75,2.129 5.91,5.695 6.636,5.695 0.129,0 0.231,0.098 0.231,0.219 0,0.117 0.195,0.215 0.433,0.215 0.243,0 0.438,0.097 0.438,0.218 0,0.122 0.18,0.219 0.398,0.219 0.219,0 0.465,0.067 0.547,0.149 0.242,0.242 1.731,0.714 2.262,0.718 0.269,0 0.488,0.09 0.488,0.196 0,0.664 7.11,0.656 7.52,-0.004 0.062,-0.106 0.398,-0.192 0.742,-0.192 0.348,0 0.687,-0.097 0.762,-0.214 0.074,-0.122 0.281,-0.219 0.464,-0.219 0.18,0 0.754,-0.293 1.278,-0.653 0.519,-0.359 1,-0.652 1.062,-0.652 0.188,0 1.563,-1.262 3.731,-3.426 1.109,-1.105 2.101,-2.011 2.199,-2.011 0.344,0 1.488,-1.047 1.324,-1.211 -0.418,-0.422 -2.887,1.336 -4.316,3.074 -0.508,0.617 -2.168,2.098 -3.035,2.703 -0.411,0.289 -0.797,0.586 -0.86,0.66 -0.058,0.074 -0.426,0.277 -0.812,0.445 -0.391,0.168 -0.707,0.379 -0.707,0.473 0,0.09 -0.293,0.164 -0.653,0.164 -0.359,0 -0.652,0.098 -0.652,0.215 0,0.121 -0.336,0.219 -0.75,0.219 -0.41,0 -0.809,0.097 -0.883,0.219 -0.176,0.285 -5.258,0.285 -5.433,0 -0.075,-0.122 -0.344,-0.219 -0.598,-0.219 -0.418,0 -1.262,-0.227 -2.449,-0.653 -1.106,-0.398 -3.59,-1.757 -4.598,-2.515 -0.809,-0.61 -3.437,-3.207 -4.207,-4.156 -0.711,-0.879 -2.176,-1.766 -2.176,-1.321 z"
       id="path16"
       style="fill:#000000;fill-opacity:1;fill-rule:nonzero;stroke:none" /><text
       x="79.503883"
       y="-51.825191"
       transform="scale(1,-1)"
       id="text3004"
       xml:space="preserve"
       style="font-size:8px;font-style:normal;font-weight:normal;line-height:125%;letter-spacing:0px;word-spacing:0px;fill:#000000;fill-opacity:1;stroke:none;font-family:Sans"><tspan
         x="79.503883"
         y="-51.825191"
         id="tspan3006"
         style="text-align:center;text-anchor:middle">Concrete</tspan><tspan
         x="79.503883"
         y="-41.825191"
         id="tspan3008"
         style="text-align:center;text-anchor:middle">Syntax</tspan></text>
<text
       x="79.576973"
       y="-15.202613"
       transform="scale(1,-1)"
       id="text3004-1"
       xml:space="preserve"
       style="font-size:8px;font-style:normal;font-weight:normal;line-height:125%;letter-spacing:0px;word-spacing:0px;fill:#000000;fill-opacity:1;stroke:none;font-family:Sans"><tspan
         x="79.576973"
         y="-15.202613"
         id="tspan3008-0"
         style="text-align:center;text-anchor:middle">Abstract</tspan><tspan
         x="79.576973"
         y="-5.2026129"
         id="tspan3036"
         style="text-align:center;text-anchor:middle">Syntax Tree</tspan></text>
<text
       x="214.8983"
       y="-51.603642"
       transform="scale(1,-1)"
       id="text3004-5"
       xml:space="preserve"
       style="font-size:8px;font-style:normal;font-weight:normal;line-height:125%;letter-spacing:0px;word-spacing:0px;fill:#000000;fill-opacity:1;stroke:none;font-family:Sans"><tspan
         x="214.8983"
         y="-51.603642"
         id="tspan3006-6"
         style="text-align:center;text-anchor:middle">Concrete</tspan><tspan
         x="214.8983"
         y="-41.603642"
         id="tspan3008-3"
         style="text-align:center;text-anchor:middle">Syntax</tspan></text>
<text
       x="214.44792"
       y="-14.264438"
       transform="scale(1,-1)"
       id="text3004-1-6"
       xml:space="preserve"
       style="font-size:8px;font-style:normal;font-weight:normal;line-height:125%;letter-spacing:0px;word-spacing:0px;fill:#000000;fill-opacity:1;stroke:none;font-family:Sans"><tspan
         x="214.44792"
         y="-14.264438"
         id="tspan3008-0-3"
         style="text-align:center;text-anchor:middle">Abstract</tspan><tspan
         x="214.44792"
         y="-4.2644377"
         id="tspan3036-0"
         style="text-align:center;text-anchor:middle">Syntax Tree</tspan></text>
</g></svg>