<?xml version="1.0" encoding="UTF-8" standalone="no"?>
<!-- Created with Inkscape (http://www.inkscape.org/) -->

<svg
   xmlns:dc="http://purl.org/dc/elements/1.1/"
   xmlns:cc="http://creativecommons.org/ns#"
   xmlns:rdf="http://www.w3.org/1999/02/22-rdf-syntax-ns#"
   xmlns:svg="http://www.w3.org/2000/svg"
   xmlns="http://www.w3.org/2000/svg"
   version="1.1"
   width="484.75"
   height="437.5"
   id="svg3765">
  <defs
     id="defs3767">
    <clipPath
       id="clipPath292">
      <path
         d="m 144.4,414.1 73.2,0 0,349.8 -73.2,0 0,-349.8 z"
         id="path294" />
    </clipPath>
  </defs>
  <metadata
     id="metadata3771">
    <rdf:RDF>
      <cc:Work
         rdf:about="">
        <dc:format>image/svg+xml</dc:format>
        <dc:type
           rdf:resource="http://purl.org/dc/dcmitype/StillImage" />
        <dc:title></dc:title>
      </cc:Work>
    </rdf:RDF>
  </metadata>
  <g
     transform="translate(-273.56578,-113.05252)"
     id="layer1">
    <path
       d="m 273.62828,142.86502 484.625,0"
       id="path54"
       style="fill:none;stroke:#000000;stroke-width:0.125;stroke-linecap:butt;stroke-linejoin:miter;stroke-miterlimit:10;stroke-opacity:1;stroke-dasharray:none" />
    <path
       d="m 383.37828,157.99002 374.875,0"
       id="path56"
       style="fill:none;stroke:#000000;stroke-width:0.125;stroke-linecap:butt;stroke-linejoin:miter;stroke-miterlimit:10;stroke-opacity:1;stroke-dasharray:none" />
    <path
       d="m 475.00328,173.11502 283.25,0"
       id="path58"
       style="fill:none;stroke:#000000;stroke-width:0.125;stroke-linecap:butt;stroke-linejoin:miter;stroke-miterlimit:10;stroke-opacity:1;stroke-dasharray:none" />
    <path
       d="m 475.00328,188.24002 283.25,0"
       id="path60"
       style="fill:none;stroke:#000000;stroke-width:0.125;stroke-linecap:butt;stroke-linejoin:miter;stroke-miterlimit:10;stroke-opacity:1;stroke-dasharray:none" />
    <path
       d="m 383.37828,203.24002 374.875,0"
       id="path62"
       style="fill:none;stroke:#000000;stroke-width:0.125;stroke-linecap:butt;stroke-linejoin:miter;stroke-miterlimit:10;stroke-opacity:1;stroke-dasharray:none" />
    <path
       d="m 475.00328,218.36502 283.25,0"
       id="path64"
       style="fill:none;stroke:#000000;stroke-width:0.125;stroke-linecap:butt;stroke-linejoin:miter;stroke-miterlimit:10;stroke-opacity:1;stroke-dasharray:none" />
    <path
       d="m 475.00328,233.49002 283.25,0"
       id="path66"
       style="fill:none;stroke:#000000;stroke-width:0.125;stroke-linecap:butt;stroke-linejoin:miter;stroke-miterlimit:10;stroke-opacity:1;stroke-dasharray:none" />
    <path
       d="m 475.00328,248.61502 283.25,0"
       id="path68"
       style="fill:none;stroke:#000000;stroke-width:0.125;stroke-linecap:butt;stroke-linejoin:miter;stroke-miterlimit:10;stroke-opacity:1;stroke-dasharray:none" />
    <path
       d="m 475.00328,263.61502 283.25,0"
       id="path70"
       style="fill:none;stroke:#000000;stroke-width:0.125;stroke-linecap:butt;stroke-linejoin:miter;stroke-miterlimit:10;stroke-opacity:1;stroke-dasharray:none" />
    <path
       d="m 273.62828,278.74002 484.625,0"
       id="path72"
       style="fill:none;stroke:#000000;stroke-width:0.125;stroke-linecap:butt;stroke-linejoin:miter;stroke-miterlimit:10;stroke-opacity:1;stroke-dasharray:none" />
    <path
       d="m 475.00328,293.86502 283.25,0"
       id="path74"
       style="fill:none;stroke:#000000;stroke-width:0.125;stroke-linecap:butt;stroke-linejoin:miter;stroke-miterlimit:10;stroke-opacity:1;stroke-dasharray:none" />
    <path
       d="m 475.00328,308.99002 283.25,0"
       id="path76"
       style="fill:none;stroke:#000000;stroke-width:0.125;stroke-linecap:butt;stroke-linejoin:miter;stroke-miterlimit:10;stroke-opacity:1;stroke-dasharray:none" />
    <path
       d="m 383.37828,323.99002 374.875,0"
       id="path78"
       style="fill:none;stroke:#000000;stroke-width:0.125;stroke-linecap:butt;stroke-linejoin:miter;stroke-miterlimit:10;stroke-opacity:1;stroke-dasharray:none" />
    <path
       d="m 475.00328,339.11502 283.25,0"
       id="path80"
       style="fill:none;stroke:#000000;stroke-width:0.125;stroke-linecap:butt;stroke-linejoin:miter;stroke-miterlimit:10;stroke-opacity:1;stroke-dasharray:none" />
    <path
       d="m 475.00328,354.24002 283.25,0"
       id="path82"
       style="fill:none;stroke:#000000;stroke-width:0.125;stroke-linecap:butt;stroke-linejoin:miter;stroke-miterlimit:10;stroke-opacity:1;stroke-dasharray:none" />
    <path
       d="m 475.00328,369.36502 283.25,0"
       id="path84"
       style="fill:none;stroke:#000000;stroke-width:0.125;stroke-linecap:butt;stroke-linejoin:miter;stroke-miterlimit:10;stroke-opacity:1;stroke-dasharray:none" />
    <path
       d="m 273.62828,384.36502 484.625,0"
       id="path86"
       style="fill:none;stroke:#000000;stroke-width:0.125;stroke-linecap:butt;stroke-linejoin:miter;stroke-miterlimit:10;stroke-opacity:1;stroke-dasharray:none" />
    <path
       d="m 475.00328,399.49002 283.25,0"
       id="path88"
       style="fill:none;stroke:#000000;stroke-width:0.125;stroke-linecap:butt;stroke-linejoin:miter;stroke-miterlimit:10;stroke-opacity:1;stroke-dasharray:none" />
    <path
       d="m 475.00328,414.61502 283.25,0"
       id="path90"
       style="fill:none;stroke:#000000;stroke-width:0.125;stroke-linecap:butt;stroke-linejoin:miter;stroke-miterlimit:10;stroke-opacity:1;stroke-dasharray:none" />
    <path
       d="m 383.37828,429.74002 374.875,0"
       id="path92"
       style="fill:none;stroke:#000000;stroke-width:0.125;stroke-linecap:butt;stroke-linejoin:miter;stroke-miterlimit:10;stroke-opacity:1;stroke-dasharray:none" />
    <path
       d="m 475.00328,444.74002 283.25,0"
       id="path94"
       style="fill:none;stroke:#000000;stroke-width:0.125;stroke-linecap:butt;stroke-linejoin:miter;stroke-miterlimit:10;stroke-opacity:1;stroke-dasharray:none" />
    <path
       d="m 475.00328,459.86502 283.25,0"
       id="path96"
       style="fill:none;stroke:#000000;stroke-width:0.125;stroke-linecap:butt;stroke-linejoin:miter;stroke-miterlimit:10;stroke-opacity:1;stroke-dasharray:none" />
    <path
       d="m 475.00328,474.99002 283.25,0"
       id="path98"
       style="fill:none;stroke:#000000;stroke-width:0.125;stroke-linecap:butt;stroke-linejoin:miter;stroke-miterlimit:10;stroke-opacity:1;stroke-dasharray:none" />
    <path
       d="m 383.37828,490.11502 374.875,0"
       id="path100"
       style="fill:none;stroke:#000000;stroke-width:0.125;stroke-linecap:butt;stroke-linejoin:miter;stroke-miterlimit:10;stroke-opacity:1;stroke-dasharray:none" />
    <path
       d="m 475.00328,505.11502 283.25,0"
       id="path102"
       style="fill:none;stroke:#000000;stroke-width:0.125;stroke-linecap:butt;stroke-linejoin:miter;stroke-miterlimit:10;stroke-opacity:1;stroke-dasharray:none" />
    <path
       d="m 475.00328,520.24002 283.25,0"
       id="path104"
       style="fill:none;stroke:#000000;stroke-width:0.125;stroke-linecap:butt;stroke-linejoin:miter;stroke-miterlimit:10;stroke-opacity:1;stroke-dasharray:none" />
    <path
       d="m 383.37828,535.36502 374.875,0"
       id="path106"
       style="fill:none;stroke:#000000;stroke-width:0.125;stroke-linecap:butt;stroke-linejoin:miter;stroke-miterlimit:10;stroke-opacity:1;stroke-dasharray:none" />
    <path
       d="m 273.62828,550.49002 484.625,0"
       id="path108"
       style="fill:none;stroke:#000000;stroke-width:0.125;stroke-linecap:butt;stroke-linejoin:miter;stroke-miterlimit:10;stroke-opacity:1;stroke-dasharray:none" />
    <path
       d="m 273.62828,550.49002 0,-407.625"
       id="path110"
       style="fill:none;stroke:#000000;stroke-width:0.125;stroke-linecap:butt;stroke-linejoin:miter;stroke-miterlimit:10;stroke-opacity:1;stroke-dasharray:none" />
    <path
       d="m 383.37828,550.49002 0,-407.625"
       id="path112"
       style="fill:none;stroke:#000000;stroke-width:0.125;stroke-linecap:butt;stroke-linejoin:miter;stroke-miterlimit:10;stroke-opacity:1;stroke-dasharray:none" />
    <path
       d="m 475.00328,550.49002 0,-407.625"
       id="path114"
       style="fill:none;stroke:#000000;stroke-width:0.125;stroke-linecap:butt;stroke-linejoin:miter;stroke-miterlimit:10;stroke-opacity:1;stroke-dasharray:none" />
    <path
       d="m 593.62828,550.49002 0,-437.375"
       id="path116"
       style="fill:none;stroke:#000000;stroke-width:0.125;stroke-linecap:butt;stroke-linejoin:miter;stroke-miterlimit:10;stroke-opacity:1;stroke-dasharray:none" />
    <path
       d="m 758.25328,550.49002 0,-407.625"
       id="path118"
       style="fill:none;stroke:#000000;stroke-width:0.125;stroke-linecap:butt;stroke-linejoin:miter;stroke-miterlimit:10;stroke-opacity:1;stroke-dasharray:none" />
    <g
       transform="matrix(1.25,0,0,-1.25,202.75328,1068.24)"
       id="g120">
      <text
         transform="matrix(1,0,0,-1,111.8,748.7)"
         id="text122">
        <tspan
           x="0 5.5 11.6 17.190001 20.49 24.379999 29.969999 35.470001 38.860001 41.650002 44.950001 51.049999 53.84 59.43 65.529999 71.629997 77.129997 81.019997 86.610001 89.910004 95.5 99.389999 102.18 107.68 110.47 116.06 124.95 130.45 136.64 139.94"
           y="0"
           id="tspan124"
           style="font-size:10px;font-variant:normal;font-weight:bold;writing-mode:lr-tb;fill:#000000;fill-opacity:1;fill-rule:nonzero;stroke:none;font-family:Liberation Sans;-inkscape-font-specification:LiberationSans-Bold">abstract to concreter elements</tspan>
      </text>
    </g>
    <g
       transform="matrix(1.25,0,0,-1.25,202.75328,1068.24)"
       id="g126">
      <text
         transform="matrix(1,0,0,-1,313.7,748.7)"
         id="text128">
        <tspan
           x="0 5.5 8.8000002 12.19 16.08 18.870001 24.969999 31.07 34.369999 39.959999"
           y="0"
           id="tspan130"
           style="font-size:10px;font-variant:normal;font-weight:bold;writing-mode:lr-tb;fill:#000000;fill-opacity:1;fill-rule:nonzero;stroke:none;font-family:Liberation Sans;-inkscape-font-specification:LiberationSans-Bold">attributes</tspan>
      </text>
    </g>
    <g
       transform="matrix(1.25,0,0,-1.25,202.75328,1068.24)"
       id="g132">
      <text
         transform="matrix(1,0,0,-1,76.1,682.5)"
         id="text134">
        <tspan
           x="0 6.9000001 13.09 19.389999 23.290001 29.48 32.18 38.57 44.669998"
           y="0"
           id="tspan136"
           style="font-size:10px;font-variant:normal;font-weight:200;writing-mode:lr-tb;fill:#000000;fill-opacity:1;fill-rule:nonzero;stroke:none;font-family:DejaVuSans;-inkscape-font-specification:DejaVuSans-ExtraLight">Container</tspan>
      </text>
    </g>
    <g
       transform="matrix(1.25,0,0,-1.25,202.75328,1068.24)"
       id="g138">
      <text
         transform="matrix(1,0,0,-1,154.9,731.6)"
         id="text140">
        <tspan
           x="0 6.3000002 10.2 16.389999 20.49 24.389999 27.58 33.279999 39.380001 42.169998 48.470001"
           y="0"
           id="tspan142"
           style="font-size:10px;font-variant:normal;font-weight:200;writing-mode:lr-tb;fill:#000000;fill-opacity:1;fill-rule:nonzero;stroke:none;font-family:DejaVuSans;-inkscape-font-specification:DejaVuSans-ExtraLight">Start Point</tspan>
      </text>
    </g>
    <g
       transform="matrix(1.25,0,0,-1.25,202.75328,1068.24)"
       id="g144">
      <text
         transform="matrix(1,0,0,-1,218.8,731.6)"
         id="text146">
        <tspan
           x="0 6.5 12.6 18.700001"
           y="0"
           id="tspan148"
           style="font-size:10px;font-variant:normal;font-weight:200;writing-mode:lr-tb;fill:#000000;fill-opacity:1;fill-rule:nonzero;stroke:none;font-family:DejaVuSans;-inkscape-font-specification:DejaVuSans-ExtraLight">Root</tspan>
      </text>
    </g>
    <g
       transform="matrix(1.25,0,0,-1.25,202.75328,1068.24)"
       id="g150">
      <text
         transform="matrix(1,0,0,-1,164.7,706.6)"
         id="text152">
        <tspan
           x="0 8.6000004 14.7 18.6 22.59 28.690001"
           y="0"
           id="tspan154"
           style="font-size:10px;font-variant:normal;font-weight:200;writing-mode:lr-tb;fill:#000000;fill-opacity:1;fill-rule:nonzero;stroke:none;font-family:DejaVuSans;-inkscape-font-specification:DejaVuSans-ExtraLight">Matter</tspan>
      </text>
    </g>
    <g
       transform="matrix(1.25,0,0,-1.25,202.75328,1068.24)"
       id="g156">
      <text
         transform="matrix(1,0,0,-1,218.8,719.5)"
         id="text158">
        <tspan
           x="0 5 8.8999996 15 21.299999 25.290001 28.389999 37.080002 43.18 47.080002 51.07 57.169998"
           y="0"
           id="tspan160"
           style="font-size:10px;font-variant:normal;font-weight:200;writing-mode:lr-tb;fill:#000000;fill-opacity:1;fill-rule:nonzero;stroke:none;font-family:DejaVuSans;-inkscape-font-specification:DejaVuSans-ExtraLight">Front Matter</tspan>
      </text>
    </g>
    <g
       transform="matrix(1.25,0,0,-1.25,202.75328,1068.24)"
       id="g162">
      <text
         transform="matrix(1,0,0,-1,218.8,707.4)"
         id="text164">
        <tspan
           x="0 6.5 12.6 18.99 24.889999 28.08 36.68 42.779999 46.77 50.669998 56.77"
           y="0"
           id="tspan166"
           style="font-size:10px;font-variant:normal;font-weight:200;writing-mode:lr-tb;fill:#000000;fill-opacity:1;fill-rule:nonzero;stroke:none;font-family:DejaVuSans;-inkscape-font-specification:DejaVuSans-ExtraLight">Body Matter</tspan>
      </text>
    </g>
    <g
       transform="matrix(1.25,0,0,-1.25,202.75328,1068.24)"
       id="g168">
      <text
         transform="matrix(1,0,0,-1,218.8,695.3)"
         id="text170">
        <tspan
           x="0 6.5 12.6 18.09 23.879999 27.07 35.669998 41.860001 45.759998 49.66 55.849998"
           y="0"
           id="tspan172"
           style="font-size:10px;font-variant:normal;font-weight:200;writing-mode:lr-tb;fill:#000000;fill-opacity:1;fill-rule:nonzero;stroke:none;font-family:DejaVuSans;-inkscape-font-specification:DejaVuSans-ExtraLight">Back Matter</tspan>
      </text>
    </g>
    <g
       transform="matrix(1.25,0,0,-1.25,202.75328,1068.24)"
       id="g174">
      <text
         transform="matrix(1,0,0,-1,163,658.3)"
         id="text176">
        <tspan
           x="0 7.8000002 14.19 18.09 20.879999 23.67 29.969999"
           y="0"
           id="tspan178"
           style="font-size:10px;font-variant:normal;font-weight:200;writing-mode:lr-tb;fill:#000000;fill-opacity:1;fill-rule:nonzero;stroke:none;font-family:DejaVuSans;-inkscape-font-specification:DejaVuSans-ExtraLight">Outline</tspan>
      </text>
    </g>
    <g
       transform="matrix(1.25,0,0,-1.25,202.75328,1068.24)"
       id="g180">
      <text
         transform="matrix(1,0,0,-1,218.8,683.3)"
         id="text182">
        <tspan
           x="0 5.5 11.69 15.79"
           y="0"
           id="tspan184"
           style="font-size:10px;font-variant:normal;font-weight:200;writing-mode:lr-tb;fill:#000000;fill-opacity:1;fill-rule:nonzero;stroke:none;font-family:DejaVuSans;-inkscape-font-specification:DejaVuSans-ExtraLight">Part</tspan>
      </text>
    </g>
    <g
       transform="matrix(1.25,0,0,-1.25,202.75328,1068.24)"
       id="g186">
      <text
         transform="matrix(1,0,0,-1,313.7,683.3)"
         id="text188">
        <tspan
           x="0 3.9000001 6.6900001 10.59 13.38 19.48 22.67 25.860001 32.16 38.549999 48.25 54.639999 60.740002 64.839996 67.629997 73.93"
           y="0"
           id="tspan190"
           style="font-size:10px;font-variant:normal;font-weight:200;writing-mode:lr-tb;fill:#000000;fill-opacity:1;fill-rule:nonzero;stroke:none;font-family:DejaVuSans;-inkscape-font-specification:DejaVuSans-ExtraLight">title, numbering</tspan>
      </text>
    </g>
    <g
       transform="matrix(1.25,0,0,-1.25,202.75328,1068.24)"
       id="g192">
      <text
         transform="matrix(1,0,0,-1,218.8,671.2)"
         id="text194">
        <tspan
           x="0 6.9000001 13.29 19.389999 25.780001 29.68 35.779999"
           y="0"
           id="tspan196"
           style="font-size:10px;font-variant:normal;font-weight:200;writing-mode:lr-tb;fill:#000000;fill-opacity:1;fill-rule:nonzero;stroke:none;font-family:DejaVuSans;-inkscape-font-specification:DejaVuSans-ExtraLight">Chapter</tspan>
      </text>
    </g>
    <g
       transform="matrix(1.25,0,0,-1.25,202.75328,1068.24)"
       id="g198">
      <text
         transform="matrix(1,0,0,-1,313.7,671.2)"
         id="text200">
        <tspan
           x="0 3.9000001 6.6900001 10.59 13.38 19.48 22.67 25.860001 32.16 38.549999 48.25 54.639999 60.740002 64.839996 67.629997 73.93"
           y="0"
           id="tspan202"
           style="font-size:10px;font-variant:normal;font-weight:200;writing-mode:lr-tb;fill:#000000;fill-opacity:1;fill-rule:nonzero;stroke:none;font-family:DejaVuSans;-inkscape-font-specification:DejaVuSans-ExtraLight">title, numbering</tspan>
      </text>
    </g>
    <g
       transform="matrix(1.25,0,0,-1.25,202.75328,1068.24)"
       id="g204">
      <text
         transform="matrix(1,0,0,-1,218.8,659.1)"
         id="text206">
        <tspan
           x="0 6.3000002 12.49 17.98 21.879999 24.67 30.77"
           y="0"
           id="tspan208"
           style="font-size:10px;font-variant:normal;font-weight:200;writing-mode:lr-tb;fill:#000000;fill-opacity:1;fill-rule:nonzero;stroke:none;font-family:DejaVuSans;-inkscape-font-specification:DejaVuSans-ExtraLight">Section</tspan>
      </text>
    </g>
    <g
       transform="matrix(1.25,0,0,-1.25,202.75328,1068.24)"
       id="g210">
      <text
         transform="matrix(1,0,0,-1,313.7,659.1)"
         id="text212">
        <tspan
           x="0 3.9000001 6.6900001 10.59 13.38 19.48 22.67 25.860001 32.16 38.549999 48.25 54.639999 60.740002 64.839996 67.629997 73.93"
           y="0"
           id="tspan214"
           style="font-size:10px;font-variant:normal;font-weight:200;writing-mode:lr-tb;fill:#000000;fill-opacity:1;fill-rule:nonzero;stroke:none;font-family:DejaVuSans;-inkscape-font-specification:DejaVuSans-ExtraLight">title, numbering</tspan>
      </text>
    </g>
    <g
       transform="matrix(1.25,0,0,-1.25,202.75328,1068.24)"
       id="g216">
      <text
         transform="matrix(1,0,0,-1,218.8,647)"
         id="text218">
        <tspan
           x="0 6.3000002 12.6 18.99 24.190001 30.379999 35.869999 39.77 42.560001 48.66"
           y="0"
           id="tspan220"
           style="font-size:10px;font-variant:normal;font-weight:200;writing-mode:lr-tb;fill:#000000;fill-opacity:1;fill-rule:nonzero;stroke:none;font-family:DejaVuSans;-inkscape-font-specification:DejaVuSans-ExtraLight">Subsection</tspan>
      </text>
    </g>
    <g
       transform="matrix(1.25,0,0,-1.25,202.75328,1068.24)"
       id="g222">
      <text
         transform="matrix(1,0,0,-1,313.7,647)"
         id="text224">
        <tspan
           x="0 3.9000001 6.6900001 10.59 13.38 19.48 22.67 25.860001 32.16 38.549999 48.25 54.639999 60.740002 64.839996 67.629997 73.93"
           y="0"
           id="tspan226"
           style="font-size:10px;font-variant:normal;font-weight:200;writing-mode:lr-tb;fill:#000000;fill-opacity:1;fill-rule:nonzero;stroke:none;font-family:DejaVuSans;-inkscape-font-specification:DejaVuSans-ExtraLight">title, numbering</tspan>
      </text>
    </g>
    <g
       transform="matrix(1.25,0,0,-1.25,202.75328,1068.24)"
       id="g228">
      <text
         transform="matrix(1,0,0,-1,218.8,635)"
         id="text230">
        <tspan
           x="0 6.3000002 12.6 18.99 24.190001 30.58 36.880001 42.080002 48.27 53.759998 57.66 60.450001 66.550003"
           y="0"
           id="tspan232"
           style="font-size:10px;font-variant:normal;font-weight:200;writing-mode:lr-tb;fill:#000000;fill-opacity:1;fill-rule:nonzero;stroke:none;font-family:DejaVuSans;-inkscape-font-specification:DejaVuSans-ExtraLight">Subsubsection</tspan>
      </text>
    </g>
    <g
       transform="matrix(1.25,0,0,-1.25,202.75328,1068.24)"
       id="g234">
      <text
         transform="matrix(1,0,0,-1,313.7,635)"
         id="text236">
        <tspan
           x="0 3.9000001 6.6900001 10.59 13.38 19.48 22.67 25.860001 32.16 38.549999 48.25 54.639999 60.740002 64.839996 67.629997 73.93"
           y="0"
           id="tspan238"
           style="font-size:10px;font-variant:normal;font-weight:200;writing-mode:lr-tb;fill:#000000;fill-opacity:1;fill-rule:nonzero;stroke:none;font-family:DejaVuSans;-inkscape-font-specification:DejaVuSans-ExtraLight">title, numbering</tspan>
      </text>
    </g>
    <g
       transform="matrix(1.25,0,0,-1.25,202.75328,1068.24)"
       id="g240">
      <text
         transform="matrix(1,0,0,-1,77.3,585.9)"
         id="text242">
        <tspan
           x="0 6.3000002 10.2 14.3 20.690001 26.18 30.08 36.380001 40.279999"
           y="0"
           id="tspan244"
           style="font-size:10px;font-variant:normal;font-weight:200;writing-mode:lr-tb;fill:#000000;fill-opacity:1;fill-rule:nonzero;stroke:none;font-family:DejaVuSans;-inkscape-font-specification:DejaVuSans-ExtraLight">Structure</tspan>
      </text>
    </g>
    <g
       transform="matrix(1.25,0,0,-1.25,202.75328,1068.24)"
       id="g246">
      <text
         transform="matrix(1,0,0,-1,171,610)"
         id="text248">
        <tspan
           x="0 4.4000001 10.3 16.290001"
           y="0"
           id="tspan250"
           style="font-size:10px;font-variant:normal;font-weight:200;writing-mode:lr-tb;fill:#000000;fill-opacity:1;fill-rule:nonzero;stroke:none;font-family:DejaVuSans;-inkscape-font-specification:DejaVuSans-ExtraLight">Text</tspan>
      </text>
    </g>
    <g
       transform="matrix(1.25,0,0,-1.25,202.75328,1068.24)"
       id="g252">
      <text
         transform="matrix(1,0,0,-1,218.8,622.9)"
         id="text254">
        <tspan
           x="0 5.5 11.69 15.79 21.889999 27.889999 31.99 38.18 44.48"
           y="0"
           id="tspan256"
           style="font-size:10px;font-variant:normal;font-weight:200;writing-mode:lr-tb;fill:#000000;fill-opacity:1;fill-rule:nonzero;stroke:none;font-family:DejaVuSans;-inkscape-font-specification:DejaVuSans-ExtraLight">Paragraph</tspan>
      </text>
    </g>
    <g
       transform="matrix(1.25,0,0,-1.25,202.75328,1068.24)"
       id="g258">
      <text
         transform="matrix(1,0,0,-1,313.7,622.9)"
         id="text260">
        <tspan
           x="0 3.9000001 9.8999996 15.8"
           y="0"
           id="tspan262"
           style="font-size:10px;font-variant:normal;font-weight:200;writing-mode:lr-tb;fill:#000000;fill-opacity:1;fill-rule:nonzero;stroke:none;font-family:DejaVuSans;-inkscape-font-specification:DejaVuSans-ExtraLight">text</tspan>
      </text>
    </g>
    <g
       transform="matrix(1.25,0,0,-1.25,202.75328,1068.24)"
       id="g264">
      <text
         transform="matrix(1,0,0,-1,218.8,610.8)"
         id="text266">
        <tspan
           x="0 5.5 8.29 13.49"
           y="0"
           id="tspan268"
           style="font-size:10px;font-variant:normal;font-weight:200;writing-mode:lr-tb;fill:#000000;fill-opacity:1;fill-rule:nonzero;stroke:none;font-family:DejaVuSans;-inkscape-font-specification:DejaVuSans-ExtraLight">List</tspan>
      </text>
    </g>
    <g
       transform="matrix(1.25,0,0,-1.25,202.75328,1068.24)"
       id="g270">
      <text
         transform="matrix(1,0,0,-1,313.7,610.8)"
         id="text272">
        <tspan
           x="0 3.9000001 9.8999996 15.8 19.700001"
           y="0"
           id="tspan274"
           style="font-size:10px;font-variant:normal;font-weight:200;writing-mode:lr-tb;fill:#000000;fill-opacity:1;fill-rule:nonzero;stroke:none;font-family:DejaVuSans;-inkscape-font-specification:DejaVuSans-ExtraLight">texts</tspan>
      </text>
    </g>
    <g
       transform="matrix(1.25,0,0,-1.25,202.75328,1068.24)"
       id="g276">
      <text
         transform="matrix(1,0,0,-1,218.8,598.7)"
         id="text278">
        <tspan
           x="0 7.8000002 14.19 20.290001 24.190001 30.290001 34.279999 36.98 43.169998"
           y="0"
           id="tspan280"
           style="font-size:10px;font-variant:normal;font-weight:200;writing-mode:lr-tb;fill:#000000;fill-opacity:1;fill-rule:nonzero;stroke:none;font-family:DejaVuSans;-inkscape-font-specification:DejaVuSans-ExtraLight">Quotation</tspan>
      </text>
    </g>
    <g
       transform="matrix(1.25,0,0,-1.25,202.75328,1068.24)"
       id="g282">
      <text
         transform="matrix(1,0,0,-1,313.7,598.7)"
         id="text284">
        <tspan
           x="0 3.9000001 9.8999996 15.8 19.700001 22.889999 26.08 29.98 36.080002 39.580002 45.77 49.669998 55.77 62.16 67.650002 73.75 76.540001 80.440002 86.629997"
           y="0"
           id="tspan286"
           style="font-size:10px;font-variant:normal;font-weight:200;writing-mode:lr-tb;fill:#000000;fill-opacity:1;fill-rule:nonzero;stroke:none;font-family:DejaVuSans;-inkscape-font-specification:DejaVuSans-ExtraLight">text, referenceitem</tspan>
      </text>
    </g>
    <g
       transform="matrix(1.25,0,0,-1.25,202.75328,1068.24)"
       id="g288">
      <g
         clip-path="url(#clipPath292)"
         id="g290">
        <g
           id="g296">
          <text
             transform="matrix(1,0,0,-1,144.8,567.7)"
             id="text298">
            <tspan
               x="0 6.9000001 13.09 19.389999 23.290001 26.08 32.18 38.57 44.669998 51.060001 54.25 60.75 66.550003"
               y="0"
               id="tspan300"
               style="font-size:10px;font-variant:normal;font-weight:200;writing-mode:lr-tb;fill:#000000;fill-opacity:1;fill-rule:nonzero;stroke:none;font-family:DejaVuSans;-inkscape-font-specification:DejaVuSans-ExtraLight">Captioned Box</tspan>
          </text>
        </g>
      </g>
    </g>
    <g
       transform="matrix(1.25,0,0,-1.25,202.75328,1068.24)"
       id="g302">
      <text
         transform="matrix(1,0,0,-1,218.8,586.7)"
         id="text304">
        <tspan
           x="0 5 7.79 13.79 20.09 23.99"
           y="0"
           id="tspan306"
           style="font-size:10px;font-variant:normal;font-weight:200;writing-mode:lr-tb;fill:#000000;fill-opacity:1;fill-rule:nonzero;stroke:none;font-family:DejaVuSans;-inkscape-font-specification:DejaVuSans-ExtraLight">Figure</tspan>
      </text>
    </g>
    <g
       transform="matrix(1.25,0,0,-1.25,202.75328,1068.24)"
       id="g308">
      <text
         transform="matrix(1,0,0,-1,313.7,586.7)"
         id="text310">
        <tspan
           x="0 3.9000001 6.6900001 10.59 13.38 19.48 22.67 25.860001 32.16 38.549999 48.25 54.639999 60.740002 64.839996 67.629997 73.93 80.019997 83.120003 86.309998 91.800003 97.900002 104.29 108.19 110.98 117.08"
           y="0"
           id="tspan312"
           style="font-size:10px;font-variant:normal;font-weight:200;writing-mode:lr-tb;fill:#000000;fill-opacity:1;fill-rule:nonzero;stroke:none;font-family:DejaVuSans;-inkscape-font-specification:DejaVuSans-ExtraLight">title, numbering, caption</tspan>
      </text>
    </g>
    <g
       transform="matrix(1.25,0,0,-1.25,202.75328,1068.24)"
       id="g314">
      <text
         transform="matrix(1,0,0,-1,218.8,574.6)"
         id="text316">
        <tspan
           x="0 4.4000001 10.5 16.889999 19.68"
           y="0"
           id="tspan318"
           style="font-size:10px;font-variant:normal;font-weight:200;writing-mode:lr-tb;fill:#000000;fill-opacity:1;fill-rule:nonzero;stroke:none;font-family:DejaVuSans;-inkscape-font-specification:DejaVuSans-ExtraLight">Table</tspan>
      </text>
    </g>
    <g
       transform="matrix(1.25,0,0,-1.25,202.75328,1068.24)"
       id="g320">
      <text
         transform="matrix(1,0,0,-1,313.7,574.6)"
         id="text322">
        <tspan
           x="0 3.9000001 6.6900001 10.59 13.38 19.48 22.67 25.860001 32.16 38.549999 48.25 54.639999 60.740002 64.839996 67.629997 73.93 80.019997 83.120003 86.309998 91.800003 97.900002 104.29 108.19 110.98 117.08"
           y="0"
           id="tspan324"
           style="font-size:10px;font-variant:normal;font-weight:200;writing-mode:lr-tb;fill:#000000;fill-opacity:1;fill-rule:nonzero;stroke:none;font-family:DejaVuSans;-inkscape-font-specification:DejaVuSans-ExtraLight">title, numbering, caption</tspan>
      </text>
    </g>
    <g
       transform="matrix(1.25,0,0,-1.25,202.75328,1068.24)"
       id="g326">
      <text
         transform="matrix(1,0,0,-1,218.8,562.5)"
         id="text328">
        <tspan
           x="0 5.3000002 11.49 15.39 25.18 31.48 34.27"
           y="0"
           id="tspan330"
           style="font-size:10px;font-variant:normal;font-weight:200;writing-mode:lr-tb;fill:#000000;fill-opacity:1;fill-rule:nonzero;stroke:none;font-family:DejaVuSans;-inkscape-font-specification:DejaVuSans-ExtraLight">Formula</tspan>
      </text>
    </g>
    <g
       transform="matrix(1.25,0,0,-1.25,202.75328,1068.24)"
       id="g332">
      <text
         transform="matrix(1,0,0,-1,313.7,562.5)"
         id="text334">
        <tspan
           x="0 3.9000001 6.6900001 10.59 13.38 19.48 22.67 25.860001 32.16 38.549999 48.25 54.639999 60.740002 64.839996 67.629997 73.93 80.019997 83.120003 86.309998 91.800003 97.900002 104.29 108.19 110.98 117.08"
           y="0"
           id="tspan336"
           style="font-size:10px;font-variant:normal;font-weight:200;writing-mode:lr-tb;fill:#000000;fill-opacity:1;fill-rule:nonzero;stroke:none;font-family:DejaVuSans;-inkscape-font-specification:DejaVuSans-ExtraLight">title, numbering, caption</tspan>
      </text>
    </g>
    <g
       transform="matrix(1.25,0,0,-1.25,202.75328,1068.24)"
       id="g338">
      <text
         transform="matrix(1,0,0,-1,218.8,550.4)"
         id="text340">
        <tspan
           x="0 6.9000001 13.09 19.389999"
           y="0"
           id="tspan342"
           style="font-size:10px;font-variant:normal;font-weight:200;writing-mode:lr-tb;fill:#000000;fill-opacity:1;fill-rule:nonzero;stroke:none;font-family:DejaVuSans;-inkscape-font-specification:DejaVuSans-ExtraLight">Code</tspan>
      </text>
    </g>
    <g
       transform="matrix(1.25,0,0,-1.25,202.75328,1068.24)"
       id="g344">
      <text
         transform="matrix(1,0,0,-1,313.7,550.4)"
         id="text346">
        <tspan
           x="0 3.9000001 6.6900001 10.59 13.38 19.48 22.67 25.860001 32.16 38.549999 48.25 54.639999 60.740002 64.839996 67.629997 73.93 80.019997 83.120003 86.309998 91.800003 97.900002 104.29 108.19 110.98 117.08"
           y="0"
           id="tspan348"
           style="font-size:10px;font-variant:normal;font-weight:200;writing-mode:lr-tb;fill:#000000;fill-opacity:1;fill-rule:nonzero;stroke:none;font-family:DejaVuSans;-inkscape-font-specification:DejaVuSans-ExtraLight">title, numbering, caption</tspan>
      </text>
    </g>
    <g
       transform="matrix(1.25,0,0,-1.25,202.75328,1068.24)"
       id="g350">
      <text
         transform="matrix(1,0,0,-1,88.2,477.2)"
         id="text352">
        <tspan
           x="0 8.6000004 14.7 18.690001"
           y="0"
           id="tspan354"
           style="font-size:10px;font-variant:normal;font-weight:200;writing-mode:lr-tb;fill:#000000;fill-opacity:1;fill-rule:nonzero;stroke:none;font-family:DejaVuSans;-inkscape-font-specification:DejaVuSans-ExtraLight">Meta</tspan>
      </text>
    </g>
    <g
       transform="matrix(1.25,0,0,-1.25,202.75328,1068.24)"
       id="g356">
      <text
         transform="matrix(1,0,0,-1,218.8,538.4)"
         id="text358">
        <tspan
           x="0 7.6999998 13.8 19.290001 25.59 35.380001 41.48 47.869999 51.77 54.959999 60.759998 63.549999 67.449997 70.239998"
           y="0"
           id="tspan360"
           style="font-size:10px;font-variant:normal;font-weight:200;writing-mode:lr-tb;fill:#000000;fill-opacity:1;fill-rule:nonzero;stroke:none;font-family:DejaVuSans;-inkscape-font-specification:DejaVuSans-ExtraLight">Document Title</tspan>
      </text>
    </g>
    <g
       transform="matrix(1.25,0,0,-1.25,202.75328,1068.24)"
       id="g362">
      <text
         transform="matrix(1,0,0,-1,313.7,538.4)"
         id="text364">
        <tspan
           x="0 3.9000001 6.6900001 10.59 13.38 19.48 22.67 25.860001 31.059999 37.360001 43.75 47.650002 50.439999 54.34 57.130001"
           y="0"
           id="tspan366"
           style="font-size:10px;font-variant:normal;font-weight:200;writing-mode:lr-tb;fill:#000000;fill-opacity:1;fill-rule:nonzero;stroke:none;font-family:DejaVuSans;-inkscape-font-specification:DejaVuSans-ExtraLight">title, subtitle</tspan>
      </text>
    </g>
    <g
       transform="matrix(1.25,0,0,-1.25,202.75328,1068.24)"
       id="g368">
      <text
         transform="matrix(1,0,0,-1,218.8,526.3)"
         id="text370">
        <tspan
           x="0 6.8000002 13.1 17.09 23.389999 29.49"
           y="0"
           id="tspan372"
           style="font-size:10px;font-variant:normal;font-weight:200;writing-mode:lr-tb;fill:#000000;fill-opacity:1;fill-rule:nonzero;stroke:none;font-family:DejaVuSans;-inkscape-font-specification:DejaVuSans-ExtraLight">Author</tspan>
      </text>
    </g>
    <g
       transform="matrix(1.25,0,0,-1.25,202.75328,1068.24)"
       id="g374">
      <text
         transform="matrix(1,0,0,-1,313.7,526.3)"
         id="text376">
        <tspan
           x="0 6.3000002 12.4 22.190001"
           y="0"
           id="tspan378"
           style="font-size:10px;font-variant:normal;font-weight:200;writing-mode:lr-tb;fill:#000000;fill-opacity:1;fill-rule:nonzero;stroke:none;font-family:DejaVuSans;-inkscape-font-specification:DejaVuSans-ExtraLight">name</tspan>
      </text>
    </g>
    <g
       transform="matrix(1.25,0,0,-1.25,202.75328,1068.24)"
       id="g380">
      <text
         transform="matrix(1,0,0,-1,218.8,514.2)"
         id="text382">
        <tspan
           x="0 6.8000002 13.1 18.389999 22.290001 26.389999 32.490002 37.98"
           y="0"
           id="tspan384"
           style="font-size:10px;font-variant:normal;font-weight:200;writing-mode:lr-tb;fill:#000000;fill-opacity:1;fill-rule:nonzero;stroke:none;font-family:DejaVuSans;-inkscape-font-specification:DejaVuSans-ExtraLight">Abstract</tspan>
      </text>
    </g>
    <g
       transform="matrix(1.25,0,0,-1.25,202.75328,1068.24)"
       id="g386">
      <text
         transform="matrix(1,0,0,-1,313.7,514.2)"
         id="text388">
        <tspan
           x="0 3.9000001 9.8999996 15.8"
           y="0"
           id="tspan390"
           style="font-size:10px;font-variant:normal;font-weight:200;writing-mode:lr-tb;fill:#000000;fill-opacity:1;fill-rule:nonzero;stroke:none;font-family:DejaVuSans;-inkscape-font-specification:DejaVuSans-ExtraLight">text</tspan>
      </text>
    </g>
    <g
       transform="matrix(1.25,0,0,-1.25,202.75328,1068.24)"
       id="g392">
      <text
         transform="matrix(1,0,0,-1,218.8,502.1)"
         id="text394">
        <tspan
           x="0 4.4000001 10.5 16.889999 19.68 25.780001 28.969999 35.07 38.66 41.759998 48.75 54.849998 61.240002 65.139999 71.330002 77.629997 81.529999"
           y="0"
           id="tspan396"
           style="font-size:10px;font-variant:normal;font-weight:200;writing-mode:lr-tb;fill:#000000;fill-opacity:1;fill-rule:nonzero;stroke:none;font-family:DejaVuSans;-inkscape-font-specification:DejaVuSans-ExtraLight">Table of Contents</tspan>
      </text>
    </g>
    <g
       transform="matrix(1.25,0,0,-1.25,202.75328,1068.24)"
       id="g398">
      <text
         transform="matrix(1,0,0,-1,313.7,502.1)"
         id="text400">
        <tspan
           x="0 6.0999999 12.4 16.299999 19.09 21.879999 28.18 34.369999"
           y="0"
           id="tspan402"
           style="font-size:10px;font-variant:normal;font-weight:200;writing-mode:lr-tb;fill:#000000;fill-opacity:1;fill-rule:nonzero;stroke:none;font-family:DejaVuSans;-inkscape-font-specification:DejaVuSans-ExtraLight">outlines</tspan>
      </text>
    </g>
    <g
       transform="matrix(1.25,0,0,-1.25,202.75328,1068.24)"
       id="g404">
      <text
         transform="matrix(1,0,0,-1,218.8,490.1)"
         id="text406">
        <tspan
           x="0 6.5 9.29 15.59 18.379999 21.17 27.27 33.27 37.369999 43.560001 49.860001 56.25"
           y="0"
           id="tspan408"
           style="font-size:10px;font-variant:normal;font-weight:200;writing-mode:lr-tb;fill:#000000;fill-opacity:1;fill-rule:nonzero;stroke:none;font-family:DejaVuSans;-inkscape-font-specification:DejaVuSans-ExtraLight">Bibliography</tspan>
      </text>
    </g>
    <g
       transform="matrix(1.25,0,0,-1.25,202.75328,1068.24)"
       id="g410">
      <text
         transform="matrix(1,0,0,-1,313.7,490.1)"
         id="text412">
        <tspan
           x="0 3.8 9.9899998 13.49 19.68 23.58 29.68 36.07 41.560001 47.66 50.450001 54.349998 60.540001 70.239998"
           y="0"
           id="tspan414"
           style="font-size:10px;font-variant:normal;font-weight:200;writing-mode:lr-tb;fill:#000000;fill-opacity:1;fill-rule:nonzero;stroke:none;font-family:DejaVuSans;-inkscape-font-specification:DejaVuSans-ExtraLight">referenceitems</tspan>
      </text>
    </g>
    <g
       transform="matrix(1.25,0,0,-1.25,202.75328,1068.24)"
       id="g416">
      <text
         transform="matrix(1,0,0,-1,218.8,478)"
         id="text418">
        <tspan
           x="0 5.5 8.29 13.49 17.389999 20.58 26.68 30.27 33.369999 38.470001 41.259998 47.259998 53.560001 57.459999 63.650002"
           y="0"
           id="tspan420"
           style="font-size:10px;font-variant:normal;font-weight:200;writing-mode:lr-tb;fill:#000000;fill-opacity:1;fill-rule:nonzero;stroke:none;font-family:DejaVuSans;-inkscape-font-specification:DejaVuSans-ExtraLight">List of Figures</tspan>
      </text>
    </g>
    <g
       transform="matrix(1.25,0,0,-1.25,202.75328,1068.24)"
       id="g422">
      <text
         transform="matrix(1,0,0,-1,313.7,478)"
         id="text424">
        <tspan
           x="0"
           y="0"
           id="tspan426"
           style="font-size:10px;font-variant:normal;font-weight:200;writing-mode:lr-tb;fill:#000000;fill-opacity:1;fill-rule:nonzero;stroke:none;font-family:DejaVuSans;-inkscape-font-specification:DejaVuSans-ExtraLight">figures</tspan>
      </text>
    </g>
    <g
       transform="matrix(1.25,0,0,-1.25,202.75328,1068.24)"
       id="g428">
      <text
         transform="matrix(1,0,0,-1,218.8,465.9)"
         id="text430">
        <tspan
           x="0 5.5 8.29 13.49 17.389999 20.58 26.68 30.27 33.369999 37.869999 43.970001 50.360001 53.150002 59.25"
           y="0"
           id="tspan432"
           style="font-size:10px;font-variant:normal;font-weight:200;writing-mode:lr-tb;fill:#000000;fill-opacity:1;fill-rule:nonzero;stroke:none;font-family:DejaVuSans;-inkscape-font-specification:DejaVuSans-ExtraLight">List of Tables</tspan>
      </text>
    </g>
    <g
       transform="matrix(1.25,0,0,-1.25,202.75328,1068.24)"
       id="g434">
      <text
         transform="matrix(1,0,0,-1,313.7,465.9)"
         id="text436">
        <tspan
           x="0 3.9000001 10 16.389999 19.09 25.280001"
           y="0"
           id="tspan438"
           style="font-size:10px;font-variant:normal;font-weight:200;writing-mode:lr-tb;fill:#000000;fill-opacity:1;fill-rule:nonzero;stroke:none;font-family:DejaVuSans;-inkscape-font-specification:DejaVuSans-ExtraLight">tables</tspan>
      </text>
    </g>
    <g
       transform="matrix(1.25,0,0,-1.25,202.75328,1068.24)"
       id="g440">
      <text
         transform="matrix(1,0,0,-1,218.8,453.8)"
         id="text442">
        <tspan
           x="0 6.3000002 16 22.389999 28.690001 34.790001 40.080002 42.779999 48.07"
           y="0"
           id="tspan444"
           style="font-size:10px;font-variant:normal;font-weight:200;writing-mode:lr-tb;fill:#000000;fill-opacity:1;fill-rule:nonzero;stroke:none;font-family:DejaVuSans;-inkscape-font-specification:DejaVuSans-ExtraLight">Emphasize</tspan>
      </text>
    </g>
    <g
       transform="matrix(1.25,0,0,-1.25,202.75328,1068.24)"
       id="g446">
      <text
         transform="matrix(1,0,0,-1,313.7,453.8)"
         id="text448">
        <tspan
           x="0 3.9000001 9.8999996 15.8"
           y="0"
           id="tspan450"
           style="font-size:10px;font-variant:normal;font-weight:200;writing-mode:lr-tb;fill:#000000;fill-opacity:1;fill-rule:nonzero;stroke:none;font-family:DejaVuSans;-inkscape-font-specification:DejaVuSans-ExtraLight">text</tspan>
      </text>
    </g>
    <g
       transform="matrix(1.25,0,0,-1.25,202.75328,1068.24)"
       id="g452">
      <text
         transform="matrix(1,0,0,-1,218.8,441.7)"
         id="text454">
        <tspan
           x="0 5.3000002 11.49 17.59 21.49 27.879999 33.98 37.880001"
           y="0"
           id="tspan456"
           style="font-size:10px;font-variant:normal;font-weight:200;writing-mode:lr-tb;fill:#000000;fill-opacity:1;fill-rule:nonzero;stroke:none;font-family:DejaVuSans;-inkscape-font-specification:DejaVuSans-ExtraLight">Footnote</tspan>
      </text>
    </g>
    <g
       transform="matrix(1.25,0,0,-1.25,202.75328,1068.24)"
       id="g458">
      <text
         transform="matrix(1,0,0,-1,313.7,441.7)"
         id="text460">
        <tspan
           x="0 3.9000001 9.8999996 15.8"
           y="0"
           id="tspan462"
           style="font-size:10px;font-variant:normal;font-weight:200;writing-mode:lr-tb;fill:#000000;fill-opacity:1;fill-rule:nonzero;stroke:none;font-family:DejaVuSans;-inkscape-font-specification:DejaVuSans-ExtraLight">text</tspan>
      </text>
    </g>
    <g
       transform="matrix(1.25,0,0,-1.25,202.75328,1068.24)"
       id="g464">
      <text
         transform="matrix(1,0,0,-1,218.8,429.7)"
         id="text466">
        <tspan
           x="0 8.6000004 14.7 18.700001 24.700001 27.4 33.790001 39.889999 42.68 45.869999 53.360001 59.459999 63.360001"
           y="0"
           id="tspan468"
           style="font-size:10px;font-variant:normal;font-weight:200;writing-mode:lr-tb;fill:#000000;fill-opacity:1;fill-rule:nonzero;stroke:none;font-family:DejaVuSans;-inkscape-font-specification:DejaVuSans-ExtraLight">Marginal Note</tspan>
      </text>
    </g>
    <g
       transform="matrix(1.25,0,0,-1.25,202.75328,1068.24)"
       id="g470">
      <text
         transform="matrix(1,0,0,-1,313.7,429.7)"
         id="text472">
        <tspan
           x="0 3.9000001 9.8999996 15.8"
           y="0"
           id="tspan474"
           style="font-size:10px;font-variant:normal;font-weight:200;writing-mode:lr-tb;fill:#000000;fill-opacity:1;fill-rule:nonzero;stroke:none;font-family:DejaVuSans;-inkscape-font-specification:DejaVuSans-ExtraLight">text</tspan>
      </text>
    </g>
    <g
       transform="matrix(1.25,0,0,-1.25,202.75328,1068.24)"
       id="g476">
      <text
         transform="matrix(1,0,0,-1,166.9,417.6)"
         id="text478">
        <tspan
           x="0 7.8000002 11.7 18.09 24.190001"
           y="0"
           id="tspan480"
           style="font-size:10px;font-variant:normal;font-weight:200;writing-mode:lr-tb;fill:#000000;fill-opacity:1;fill-rule:nonzero;stroke:none;font-family:DejaVuSans;-inkscape-font-specification:DejaVuSans-ExtraLight">Other</tspan>
      </text>
    </g>
    <g
       transform="matrix(1.25,0,0,-1.25,202.75328,1068.24)"
       id="g482">
      <text
         transform="matrix(1,0,0,-1,218.8,417.6)"
         id="text484">
        <tspan
           x="0 6.5 12.6 16.1 22.290001 26.190001 32.290001 38.68 44.169998 50.27 53.459999 56.450001 60.349998 66.449997"
           y="0"
           id="tspan486"
           style="font-size:10px;font-variant:normal;font-weight:200;writing-mode:lr-tb;fill:#000000;fill-opacity:1;fill-rule:nonzero;stroke:none;font-family:DejaVuSans;-inkscape-font-specification:DejaVuSans-ExtraLight">Reference Item</tspan>
      </text>
    </g>
    <g
       transform="matrix(1.25,0,0,-1.25,202.75328,1068.24)"
       id="g488">
      <text
         transform="matrix(1,0,0,-1,313.7,417.6)"
         id="text490">
        <tspan
           x="0 6.0999999 12.4 16.299999 22.49 26.59 29.780001 32.880001 38.869999 44.970001 51.16 55.259998 58.360001 61.549999 65.540001 68.239998 72.230003 74.93 81.120003 84.309998 87.5"
           y="0"
           id="tspan492"
           style="font-size:10px;font-variant:normal;font-weight:200;writing-mode:lr-tb;fill:#000000;fill-opacity:1;fill-rule:nonzero;stroke:none;font-family:DejaVuSans;-inkscape-font-specification:DejaVuSans-ExtraLight">autor, year, title, …</tspan>
      </text>
    </g>
    <g
       transform="matrix(1.25,0,0,-1.25,202.75328,1068.24)"
       id="g494">
      <text
         transform="matrix(1,0,0,-1,148.8,531.3)"
         id="text496">
        <tspan
           x="0 6.5 9.29 15.59 18.379999 21.17 27.27 33.27 37.369999 43.560001 49.860001 56.25 58.950001"
           y="0"
           id="tspan498"
           style="font-size:10px;font-variant:normal;font-weight:200;writing-mode:lr-tb;fill:#000000;fill-opacity:1;fill-rule:nonzero;stroke:none;font-family:DejaVuSans;-inkscape-font-specification:DejaVuSans-ExtraLight">Bibliographic</tspan>
      </text>
    </g>
    <g
       transform="matrix(1.25,0,0,-1.25,202.75328,1068.24)"
       id="g500">
      <text
         transform="matrix(1,0,0,-1,153.9,519.6)"
         id="text502">
        <tspan
           x="0 3.9000001 10.2 14.1 18.200001 24.59 30.08 33.98 40.369999 44.169998 50.360001"
           y="0"
           id="tspan504"
           style="font-size:10px;font-variant:normal;font-weight:200;writing-mode:lr-tb;fill:#000000;fill-opacity:1;fill-rule:nonzero;stroke:none;font-family:DejaVuSans;-inkscape-font-specification:DejaVuSans-ExtraLight">(Structure)</tspan>
      </text>
    </g>
    <g
       transform="matrix(1.25,0,0,-1.25,202.75328,1068.24)"
       id="g506">
      <text
         transform="matrix(1,0,0,-1,159.8,489.1)"
         id="text508">
        <tspan
           x="0 2.9000001 9.1999998 15.59 21.59 27.49 30.280001 36.580002"
           y="0"
           id="tspan510"
           style="font-size:10px;font-variant:normal;font-weight:200;writing-mode:lr-tb;fill:#000000;fill-opacity:1;fill-rule:nonzero;stroke:none;font-family:DejaVuSans;-inkscape-font-specification:DejaVuSans-ExtraLight">Indexing</tspan>
      </text>
    </g>
    <g
       transform="matrix(1.25,0,0,-1.25,202.75328,1068.24)"
       id="g512">
      <text
         transform="matrix(1,0,0,-1,152.8,477.4)"
         id="text514">
        <tspan
           x="0 3.9000001 10.8 16.99 23.290001 27.190001 33.380001 36.080002 42.470001 48.57 52.759998"
           y="0"
           id="tspan516"
           style="font-size:10px;font-variant:normal;font-weight:200;writing-mode:lr-tb;fill:#000000;fill-opacity:1;fill-rule:nonzero;stroke:none;font-family:DejaVuSans;-inkscape-font-specification:DejaVuSans-ExtraLight">(Container)</tspan>
      </text>
    </g>
    <g
       transform="matrix(1.25,0,0,-1.25,202.75328,1068.24)"
       id="g518">
      <text
         transform="matrix(1,0,0,-1,153.7,446.8)"
         id="text520">
        <tspan
           x="0 6.8000002 13.1 19.4 25.5 29.4 35.5 39.400002 42.099998 48.200001"
           y="0"
           id="tspan522"
           style="font-size:10px;font-variant:normal;font-weight:200;writing-mode:lr-tb;fill:#000000;fill-opacity:1;fill-rule:nonzero;stroke:none;font-family:DejaVuSans;-inkscape-font-specification:DejaVuSans-ExtraLight">Annotation</tspan>
      </text>
    </g>
    <g
       transform="matrix(1.25,0,0,-1.25,202.75328,1068.24)"
       id="g524">
      <text
         transform="matrix(1,0,0,-1,153.9,435.1)"
         id="text526">
        <tspan
           x="0 3.9000001 10.2 14.1 18.200001 24.59 30.08 33.98 40.369999 44.169998 50.360001"
           y="0"
           id="tspan528"
           style="font-size:10px;font-variant:normal;font-weight:200;writing-mode:lr-tb;fill:#000000;fill-opacity:1;fill-rule:nonzero;stroke:none;font-family:DejaVuSans;-inkscape-font-specification:DejaVuSans-ExtraLight">(Structure)</tspan>
      </text>
    </g>
  </g>
</svg>
